{"glyphs":{"0":{"ha":1451,"x_min":83,"x_max":1368,"o":"m 725 -32 q 474 -1 590 -32 q 270 94 357 31 q 133 253 183 157 q 83 476 83 349 q 133 701 83 606 q 270 859 183 796 q 474 953 357 922 q 725 985 590 985 q 977 953 860 985 q 1181 859 1094 922 q 1318 701 1268 796 q 1368 476 1368 606 q 1318 253 1368 349 q 1181 94 1268 157 q 977 -1 1094 31 q 725 -32 860 -32 m 725 731 q 611 714 664 731 q 519 665 558 697 q 456 585 479 632 q 433 476 433 538 q 456 369 433 417 q 519 289 479 321 q 611 240 558 257 q 725 222 664 222 q 840 240 786 222 q 933 289 893 257 q 995 369 972 321 q 1018 476 1018 417 q 995 585 1018 538 q 933 665 972 632 q 840 714 893 697 q 725 731 786 731 z "},"1":{"ha":756,"x_min":83,"x_max":624,"o":"m 265 0 l 265 571 l 83 571 l 83 786 q 178 802 129 786 q 271 842 226 818 q 352 894 315 865 q 410 953 389 924 l 624 953 l 624 0 l 265 0 z "},"2":{"ha":1278,"x_min":113,"x_max":1193,"o":"m 132 0 l 132 190 q 224 228 165 204 q 353 285 283 253 q 497 354 424 317 q 629 433 569 392 q 726 517 689 475 q 764 601 764 560 q 738 662 764 639 q 674 697 713 685 q 591 714 635 710 q 510 718 547 718 q 336 703 422 718 q 160 651 250 689 l 113 851 q 213 894 151 874 q 347 931 274 915 q 500 957 421 947 q 654 967 579 967 q 1033 888 910 967 q 1157 668 1157 808 q 1128 542 1157 607 q 1053 417 1100 476 q 949 309 1007 358 q 829 229 890 260 l 1193 229 l 1193 0 l 132 0 z "},"3":{"ha":1328,"x_min":104,"x_max":1232,"o":"m 143 914 q 363 959 247 946 q 593 972 479 972 q 824 956 714 972 q 1019 906 935 940 q 1152 815 1103 871 q 1201 679 1201 758 q 1186 595 1201 633 q 1148 528 1171 557 q 1097 478 1125 499 q 1046 449 1069 458 q 1113 425 1079 442 q 1172 381 1146 408 q 1215 317 1199 354 q 1232 231 1232 279 q 1179 88 1232 143 q 1038 3 1126 33 q 833 -38 949 -28 q 590 -49 717 -49 q 335 -28 457 -49 q 104 25 213 -7 l 164 215 q 235 199 189 208 q 338 183 282 190 q 449 169 393 175 q 549 164 506 164 q 677 170 617 164 q 783 189 738 176 q 854 219 828 201 q 881 260 881 238 q 801 324 881 301 q 547 346 722 346 l 272 346 l 272 579 l 519 579 q 686 585 619 579 q 794 601 753 590 q 851 626 835 611 q 868 661 868 642 q 783 733 868 708 q 543 758 697 758 q 358 748 442 758 q 193 722 275 738 l 143 914 z "},"4":{"ha":1267,"x_min":83,"x_max":1169,"o":"m 936 953 l 536 401 l 825 401 l 825 572 l 1169 572 l 1169 0 l 825 0 l 825 163 l 83 163 l 83 317 l 593 953 l 936 953 z "},"5":{"ha":1332,"x_min":97,"x_max":1235,"o":"m 1164 950 l 1164 725 l 578 725 l 567 607 q 842 597 719 607 q 1053 551 965 586 q 1188 450 1140 517 q 1235 271 1235 383 q 1194 110 1235 172 q 1075 12 1154 47 q 880 -37 996 -24 q 613 -50 764 -50 q 399 -40 492 -50 q 241 -15 306 -29 q 140 10 176 -1 q 97 25 104 22 l 175 257 q 367 213 271 231 q 563 194 463 194 q 792 214 719 194 q 865 276 865 233 q 771 363 865 338 q 499 389 676 389 l 164 389 l 240 950 l 1164 950 z "},"6":{"ha":1378,"x_min":83,"x_max":1294,"o":"m 1294 299 q 1257 153 1294 218 q 1150 44 1219 89 q 981 -26 1081 -1 q 758 -50 882 -50 q 599 -38 679 -50 q 443 -1 518 -26 q 302 65 368 25 q 188 160 236 104 q 111 288 139 215 q 83 451 83 361 q 131 656 83 560 q 274 825 178 753 q 515 940 369 897 q 856 982 660 982 q 1093 962 1000 982 q 1235 924 1186 942 l 1189 726 q 1053 757 1125 749 q 910 765 981 765 q 724 751 808 765 q 578 708 639 738 q 483 635 517 679 q 447 529 449 590 q 578 607 488 578 q 800 636 669 636 q 991 619 901 636 q 1148 564 1081 603 q 1255 460 1215 525 q 1294 299 1294 396 m 775 172 q 883 183 838 172 q 958 213 929 194 q 1002 255 988 231 q 1017 304 1017 279 q 956 401 1017 360 q 772 443 896 443 q 472 354 567 443 q 574 219 496 267 q 775 172 653 172 z "},"7":{"ha":1081,"x_min":28,"x_max":1053,"o":"m 28 953 l 1053 953 l 1053 735 l 521 0 l 88 0 l 643 701 l 28 701 l 28 953 z "},"8":{"ha":1454,"x_min":111,"x_max":1343,"o":"m 154 722 q 188 832 154 782 q 293 918 222 882 q 472 974 364 954 q 731 994 581 994 q 988 974 881 994 q 1166 919 1096 954 q 1269 835 1236 883 q 1301 731 1301 788 q 1243 588 1301 640 q 1072 511 1185 536 q 1271 413 1199 476 q 1343 260 1343 350 q 1184 26 1343 103 q 728 -50 1025 -50 q 485 -31 597 -50 q 289 25 372 -12 q 158 119 206 63 q 111 251 111 176 q 186 414 111 350 q 392 514 261 478 q 217 590 281 540 q 154 722 154 640 m 926 711 q 879 795 926 760 q 728 831 832 831 q 577 797 625 831 q 529 717 529 763 q 574 639 529 671 q 728 607 618 607 q 820 615 782 607 q 882 638 858 624 q 916 672 906 653 q 926 711 926 690 m 967 272 q 904 372 967 335 q 728 410 842 410 q 549 373 611 410 q 488 278 488 336 q 506 224 488 247 q 558 185 525 201 q 638 161 592 169 q 739 153 685 153 q 906 183 844 153 q 967 272 967 213 z "},"9":{"ha":1369,"x_min":104,"x_max":1286,"o":"m 104 632 q 151 785 104 721 q 274 890 197 849 q 451 952 351 932 q 660 972 551 972 q 949 935 829 972 q 1143 832 1068 899 q 1252 673 1218 765 q 1286 469 1286 581 q 1251 260 1286 356 q 1133 95 1215 164 q 917 -12 1050 26 q 588 -50 783 -50 q 326 -32 438 -50 q 150 4 214 -14 l 200 207 q 364 175 278 188 q 525 163 450 163 q 859 228 754 163 q 965 411 964 293 q 915 364 946 386 q 841 324 885 342 q 742 295 797 306 q 617 285 686 285 q 413 306 507 285 q 251 372 319 328 q 143 481 182 415 q 104 632 104 546 m 639 753 q 527 741 575 753 q 447 710 479 729 q 399 667 415 692 q 383 617 383 642 q 445 526 383 565 q 633 486 507 486 q 754 494 703 486 q 843 514 806 501 q 906 542 881 526 q 944 574 931 557 q 906 652 935 618 q 835 708 876 686 q 744 742 794 731 q 639 753 693 753 z "},"­":{"ha":347,"x_min":0,"x_max":0,"o":""},"\u0000":{"ha":0,"x_min":0,"x_max":0,"o":""},"\r":{"ha":347,"x_min":0,"x_max":0,"o":""}," ":{"ha":444,"x_min":0,"x_max":0,"o":""},"A":{"ha":1518,"x_min":14,"x_max":1504,"o":"m 421 0 l 14 0 l 489 953 l 1029 953 l 1504 0 l 1097 0 l 1022 168 l 493 168 l 421 0 m 713 688 l 597 435 l 921 435 l 806 688 l 713 688 z "},"B":{"ha":1583,"x_min":132,"x_max":1472,"o":"m 132 0 l 132 953 l 1006 953 q 1169 942 1093 953 q 1303 902 1246 931 q 1394 823 1361 874 q 1428 693 1428 772 q 1413 613 1428 649 q 1373 551 1397 576 q 1318 509 1349 525 q 1257 488 1288 493 q 1340 462 1301 479 q 1408 416 1379 444 q 1455 349 1438 388 q 1472 257 1472 310 q 1442 124 1472 174 q 1351 46 1411 74 q 1199 9 1290 18 q 986 0 1107 0 l 132 0 m 539 574 l 893 574 q 987 592 953 574 q 1021 654 1021 610 q 985 719 1021 699 q 890 740 950 740 l 539 740 l 539 574 m 539 214 l 918 214 q 1032 233 997 214 q 1067 300 1067 251 q 1033 367 1067 346 q 918 389 999 389 l 539 389 l 539 214 z "},"C":{"ha":1407,"x_min":83,"x_max":1329,"o":"m 799 -49 q 474 -9 610 -49 q 252 99 339 31 q 124 262 165 168 q 83 464 83 356 q 126 669 83 575 q 258 833 169 764 q 485 940 347 901 q 810 978 622 978 q 958 969 883 978 q 1102 947 1033 961 q 1229 914 1171 932 q 1328 876 1288 896 l 1264 646 q 1088 695 1174 678 q 890 713 1001 713 q 731 702 807 713 q 599 664 656 692 q 510 588 543 636 q 476 464 476 540 q 509 341 476 389 q 598 265 542 293 q 730 226 654 238 q 892 215 806 215 q 992 219 946 215 q 1081 230 1038 222 q 1168 251 1124 238 q 1267 283 1213 264 l 1329 51 q 1107 -19 1244 10 q 799 -49 969 -49 z "},"D":{"ha":1565,"x_min":132,"x_max":1482,"o":"m 132 0 l 132 954 l 903 954 q 1015 948 953 954 q 1141 923 1076 942 q 1267 871 1206 904 q 1376 784 1328 838 q 1453 654 1424 731 q 1482 474 1482 578 q 1453 294 1482 369 q 1376 165 1424 218 q 1267 80 1328 113 q 1141 30 1206 47 q 1015 6 1076 13 q 903 0 953 0 l 132 0 m 526 267 l 790 267 q 898 275 844 267 q 994 307 951 283 q 1062 372 1036 331 q 1088 479 1088 413 q 1064 582 1088 542 q 1000 646 1040 622 q 906 678 960 669 q 792 688 853 688 l 526 688 l 526 267 z "},"E":{"ha":1406,"x_min":132,"x_max":1281,"o":"m 132 0 l 132 954 l 1263 954 l 1263 717 l 526 717 l 526 579 l 1200 579 l 1200 390 l 526 390 l 526 238 l 1281 238 l 1281 0 l 132 0 z "},"F":{"ha":1401,"x_min":132,"x_max":1283,"o":"m 526 0 l 132 0 l 132 953 l 1283 953 l 1283 686 l 526 686 l 526 511 l 1231 511 l 1231 244 l 526 244 l 526 0 z "},"G":{"ha":1469,"x_min":83,"x_max":1365,"o":"m 840 -50 q 502 -10 644 -50 q 267 98 360 29 q 128 261 174 167 q 83 464 83 356 q 131 669 83 575 q 272 832 178 764 q 506 938 365 900 q 835 976 647 976 q 983 968 908 976 q 1127 945 1058 960 q 1254 913 1196 931 q 1354 875 1313 894 l 1290 646 q 1124 692 1218 674 q 903 711 1029 711 q 738 700 815 711 q 602 661 660 689 q 511 585 544 633 q 478 464 478 538 q 512 338 478 389 q 604 258 546 288 q 742 215 663 228 q 910 203 821 203 q 969 206 939 203 q 1027 216 1000 210 q 1075 229 1054 222 q 1106 242 1096 236 l 1106 347 l 843 347 l 843 539 l 1365 539 l 1365 63 q 1151 -18 1286 14 q 840 -50 1015 -50 z "},"H":{"ha":1621,"x_min":132,"x_max":1489,"o":"m 526 0 l 132 0 l 132 953 l 526 953 l 526 593 l 1094 593 l 1094 953 l 1489 953 l 1489 0 l 1094 0 l 1094 326 l 526 326 l 526 0 z "},"I":{"ha":658,"x_min":132,"x_max":525,"o":"m 525 0 l 132 0 l 132 954 l 525 954 l 525 0 z "},"J":{"ha":942,"x_min":49,"x_max":815,"o":"m 815 311 q 779 152 815 219 q 678 40 743 85 q 524 -28 614 -6 q 326 -50 433 -50 q 185 -40 256 -50 q 49 -15 115 -29 l 74 233 q 129 224 85 229 q 226 218 174 218 q 326 236 288 218 q 385 281 364 254 q 413 340 406 308 q 421 400 421 372 l 421 953 l 815 953 l 815 311 z "},"K":{"ha":1396,"x_min":132,"x_max":1354,"o":"m 526 0 l 132 0 l 132 953 l 526 953 l 526 603 l 883 953 l 1321 953 l 914 571 l 1354 0 l 914 0 l 663 333 l 526 211 l 526 0 z "},"L":{"ha":1147,"x_min":132,"x_max":1064,"o":"m 132 0 l 132 953 l 526 953 l 526 267 l 1064 267 l 1064 0 l 132 0 z "},"M":{"ha":1918,"x_min":132,"x_max":1786,"o":"m 526 0 l 132 0 l 132 953 l 579 953 l 922 385 l 993 385 l 1340 953 l 1786 953 l 1786 0 l 1392 0 l 1392 460 l 1093 0 l 821 0 l 526 453 l 526 0 z "},"N":{"ha":1579,"x_min":132,"x_max":1447,"o":"m 1447 0 l 1108 0 l 583 468 l 526 468 l 526 0 l 132 0 l 133 953 l 474 953 l 997 513 l 1053 513 l 1053 953 l 1447 953 l 1447 0 z "},"O":{"ha":1657,"x_min":83,"x_max":1574,"o":"m 829 -49 q 499 -7 639 -49 q 266 106 358 35 q 128 274 174 178 q 83 476 83 369 q 128 680 83 585 q 265 847 174 775 q 497 961 357 919 q 828 1003 638 1003 q 1158 960 1018 1003 q 1391 847 1299 918 q 1528 679 1483 775 q 1574 475 1574 583 q 1528 273 1574 368 q 1392 106 1483 178 q 1160 -7 1300 35 q 829 -49 1019 -49 m 828 738 q 683 722 747 738 q 572 674 618 706 q 502 592 526 642 q 478 475 478 542 q 503 360 478 408 q 575 279 529 311 q 685 231 621 247 q 829 215 750 215 q 964 231 900 215 q 1076 278 1028 246 q 1152 358 1124 310 q 1181 474 1181 407 q 1088 674 1181 610 q 828 738 996 738 z "},"P":{"ha":1485,"x_min":132,"x_max":1408,"o":"m 526 0 l 132 0 l 132 954 l 926 954 q 1288 867 1168 954 q 1408 596 1408 779 q 1283 328 1408 411 q 913 246 1157 246 l 526 246 l 526 0 m 526 483 l 850 483 q 976 517 938 483 q 1014 596 1014 550 q 974 681 1014 644 q 851 717 935 717 l 526 717 l 526 483 z "},"Q":{"ha":1660,"x_min":83,"x_max":1575,"o":"m 844 -25 q 669 -15 758 -25 q 494 19 579 -4 q 335 82 410 43 q 204 178 260 121 q 116 314 149 236 q 83 492 83 392 q 128 692 83 599 q 265 853 174 785 q 497 962 357 922 q 828 1001 638 1001 q 1089 978 976 1001 q 1285 916 1201 956 q 1424 825 1368 876 q 1513 716 1479 774 q 1560 599 1546 658 q 1575 483 1575 539 q 1547 326 1575 399 q 1466 193 1518 253 q 1340 90 1414 133 q 1178 22 1267 47 q 1320 -40 1247 -18 q 1475 -61 1393 -61 l 1475 -285 q 1125 -216 1286 -285 q 844 -25 964 -147 m 828 736 q 710 726 772 736 q 597 687 649 715 q 512 609 546 658 q 478 482 478 560 q 513 357 478 404 q 599 284 547 310 q 713 250 651 258 q 829 242 775 242 q 973 254 908 242 q 1083 295 1038 267 q 1155 369 1129 324 q 1181 481 1181 415 q 1153 599 1181 550 q 1077 678 1125 647 q 965 722 1029 708 q 828 736 901 736 z "},"R":{"ha":1536,"x_min":132,"x_max":1469,"o":"m 526 0 l 132 0 l 132 953 l 963 953 q 1324 858 1204 953 q 1444 579 1444 763 q 1422 470 1444 519 q 1363 384 1400 421 q 1277 323 1325 347 q 1178 288 1229 299 q 1189 281 1181 286 q 1207 268 1197 275 q 1227 253 1217 261 q 1243 238 1238 244 l 1469 0 l 1058 0 l 838 247 l 526 247 l 526 0 m 526 483 l 885 483 q 1011 516 972 483 q 1050 593 1050 549 q 1010 679 1050 643 q 890 715 971 715 l 526 715 l 526 483 z "},"S":{"ha":1144,"x_min":63,"x_max":1075,"o":"m 135 317 q 252 273 188 292 q 383 242 317 254 q 514 223 450 229 q 628 217 578 217 q 678 219 654 217 q 722 226 703 221 q 751 240 740 232 q 763 263 763 249 q 701 317 763 294 q 511 363 640 339 q 364 394 439 375 q 228 449 289 414 q 128 542 167 485 q 89 689 89 600 q 116 813 89 757 q 201 909 143 869 q 351 971 260 949 q 574 993 443 993 q 709 986 647 993 q 827 967 771 979 q 937 939 883 956 q 1049 903 990 922 l 981 656 q 765 725 867 704 q 558 746 663 746 q 465 736 504 746 q 425 690 425 726 q 447 653 425 668 q 502 628 468 639 q 578 611 536 618 q 663 599 621 604 q 811 571 738 589 q 944 519 885 553 q 1039 429 1003 485 q 1075 288 1075 374 q 1034 136 1075 197 q 926 38 993 75 q 774 -16 860 0 q 601 -32 689 -32 q 450 -24 526 -32 q 303 -1 374 -15 q 170 32 232 14 q 63 71 108 50 l 135 317 z "},"T":{"ha":1188,"x_min":28,"x_max":1160,"o":"m 1160 953 l 1160 686 l 790 686 l 790 0 l 396 0 l 396 686 l 28 686 l 28 953 l 1160 953 z "},"U":{"ha":1474,"x_min":132,"x_max":1342,"o":"m 744 -50 q 465 -16 581 -50 q 275 76 349 18 q 167 210 201 133 q 132 375 132 288 l 132 947 l 526 947 l 526 424 q 542 330 526 369 q 587 265 558 290 q 655 228 615 240 q 742 217 694 217 q 892 265 838 217 q 947 424 947 313 l 947 947 l 1342 947 l 1342 375 q 1310 210 1342 288 q 1207 76 1278 133 q 1022 -16 1136 18 q 744 -50 908 -50 z "},"V":{"ha":1571,"x_min":14,"x_max":1558,"o":"m 831 254 l 1147 953 l 1558 953 l 1097 -14 l 489 -14 l 14 953 l 425 953 l 754 254 l 831 254 z "},"W":{"ha":2306,"x_min":36,"x_max":2271,"o":"m 726 256 l 950 954 l 1389 954 l 1615 256 l 1657 256 l 1867 954 l 2271 954 l 1943 -12 l 1378 -12 l 1167 653 l 1157 653 l 964 -12 l 400 -12 l 36 954 l 468 954 l 685 256 l 726 256 z "},"X":{"ha":1396,"x_min":21,"x_max":1375,"o":"m 510 954 l 728 692 l 775 692 l 981 954 l 1368 954 l 954 468 l 1375 0 l 901 0 l 699 274 l 649 274 l 417 0 l 21 0 l 475 485 l 60 954 l 510 954 z "},"Y":{"ha":1361,"x_min":14,"x_max":1347,"o":"m 14 954 l 393 954 l 657 549 l 704 549 l 967 954 l 1347 954 l 882 314 l 882 0 l 488 0 l 488 303 l 14 954 z "},"Z":{"ha":1314,"x_min":83,"x_max":1222,"o":"m 1200 733 l 644 267 l 1222 267 l 1222 0 l 83 0 l 83 221 l 663 686 l 122 686 l 122 953 l 1200 953 l 1200 733 z "},".":{"ha":332,"x_min":42,"x_max":279,"o":"m 42 200 l 279 200 l 279 0 l 42 0 l 42 200 z "},"a":{"ha":1161,"x_min":69,"x_max":1050,"o":"m 693 74 q 581 8 656 36 q 389 -21 506 -21 q 264 -6 322 -21 q 163 38 206 8 q 94 111 119 67 q 69 215 69 156 q 91 296 69 257 q 154 366 113 335 q 258 416 196 397 q 404 435 321 435 l 664 435 q 605 506 664 483 q 447 529 546 529 q 301 515 371 529 q 175 475 232 501 q 154 529 165 499 q 135 588 143 560 q 120 638 126 617 q 113 663 114 658 q 154 683 122 667 q 238 716 186 699 q 359 747 289 733 q 517 761 429 761 q 738 742 639 761 q 906 684 836 724 q 1013 583 975 644 q 1050 438 1050 522 l 1050 0 l 719 0 l 693 74 m 589 319 q 523 309 549 319 q 482 283 497 299 q 460 249 467 267 q 454 217 454 232 q 480 156 454 186 q 561 126 506 126 q 601 132 582 126 q 634 145 619 138 q 657 160 649 153 q 665 174 665 168 l 665 319 l 589 319 z "},"b":{"ha":1356,"x_min":111,"x_max":1279,"o":"m 497 1021 l 497 682 q 655 743 572 725 q 833 761 738 761 q 980 742 901 761 q 1125 679 1058 724 q 1235 561 1192 635 q 1279 378 1279 488 q 1243 206 1279 281 q 1144 81 1207 132 q 999 5 1082 31 q 822 -21 917 -21 q 715 -10 771 -21 q 610 18 660 0 q 520 60 560 36 q 460 111 481 85 l 442 0 l 111 0 l 111 1021 l 497 1021 m 685 196 q 758 205 721 196 q 826 235 796 214 q 876 288 857 256 q 894 365 894 319 q 878 439 894 408 q 833 489 861 469 q 766 517 804 508 q 685 526 728 526 q 613 515 646 526 q 553 486 579 504 q 513 447 528 468 q 497 404 499 425 l 497 313 q 513 272 499 293 q 551 235 526 251 q 610 207 576 218 q 685 196 644 196 z "},"c":{"ha":1125,"x_min":76,"x_max":1044,"o":"m 725 538 q 619 528 667 538 q 536 499 571 519 q 482 449 501 479 q 463 375 463 418 q 483 301 463 333 q 538 248 503 269 q 622 215 574 226 q 725 204 669 204 q 824 208 778 204 q 908 219 871 213 q 972 231 946 225 q 1008 242 999 238 l 1043 40 q 978 17 1021 28 q 882 -3 935 6 q 774 -16 829 -11 q 669 -21 718 -21 q 531 -12 601 -21 q 394 14 460 -4 q 270 62 328 32 q 169 136 213 92 q 101 240 126 181 q 76 376 76 300 q 124 558 76 485 q 251 677 171 632 q 439 742 332 722 q 667 761 546 761 q 794 754 732 761 q 907 738 856 747 q 994 719 958 729 q 1044 700 1031 708 l 1008 499 q 978 508 1003 501 q 915 522 953 515 q 828 533 876 528 q 725 538 779 538 z "},"d":{"ha":1357,"x_min":78,"x_max":1246,"o":"m 1246 1021 l 1246 0 l 914 0 l 897 111 q 837 60 876 85 q 747 18 797 36 q 642 -10 697 0 q 535 -21 588 -21 q 358 5 442 -21 q 213 81 275 31 q 114 206 150 132 q 78 378 78 281 q 98 508 78 451 q 153 608 118 565 q 232 679 188 650 q 326 726 276 708 q 427 753 376 744 q 524 761 478 761 q 702 744 619 761 q 860 682 785 726 l 860 1021 l 1246 1021 m 672 526 q 590 517 629 526 q 524 489 551 508 q 479 439 496 469 q 463 365 463 408 q 481 287 463 319 q 531 234 500 254 q 598 205 561 214 q 672 196 635 196 q 746 207 713 196 q 804 235 779 218 q 844 272 829 251 q 860 313 858 293 l 860 404 q 844 447 858 425 q 803 487 829 469 q 744 515 778 504 q 672 526 711 526 z "},"e":{"ha":1169,"x_min":76,"x_max":1090,"o":"m 1085 338 l 465 338 q 491 266 465 296 q 558 218 517 236 q 651 192 599 200 q 758 183 704 183 q 859 188 813 183 q 942 200 906 193 q 1003 214 978 207 q 1039 225 1028 221 l 1069 47 q 1019 29 1057 40 q 926 7 982 18 q 801 -12 871 -4 q 657 -21 732 -21 q 519 -13 589 -21 q 385 13 450 -6 q 265 60 321 31 q 167 131 208 89 q 101 231 125 174 q 76 363 76 289 q 118 530 76 456 q 231 656 160 604 q 394 734 301 707 q 592 761 488 761 q 805 734 711 761 q 962 660 899 707 q 1058 548 1025 613 q 1088 408 1090 483 l 1085 338 m 778 451 q 762 500 774 476 q 730 542 750 524 q 682 572 710 561 q 619 583 654 583 q 558 571 586 583 q 508 540 529 558 q 475 497 488 521 q 461 451 463 474 l 778 451 z "},"f":{"ha":857,"x_min":24,"x_max":893,"o":"m 199 786 q 231 913 199 865 q 316 985 263 960 q 440 1017 369 1010 q 589 1025 511 1025 q 681 1022 632 1025 q 773 1015 729 1019 q 849 1004 817 1010 q 893 993 882 999 l 860 811 q 801 825 839 818 q 714 832 763 832 q 665 828 689 832 q 624 815 642 825 q 594 791 606 806 q 583 753 583 776 l 583 742 l 800 742 l 800 522 l 583 522 l 583 0 l 199 0 l 199 522 l 24 522 l 24 742 l 199 742 l 199 786 z "},"g":{"ha":1274,"x_min":42,"x_max":1246,"o":"m 710 175 q 948 169 847 175 q 1115 142 1049 164 q 1213 78 1181 119 q 1246 -37 1246 36 q 1195 -160 1246 -112 q 1053 -234 1144 -207 q 833 -271 961 -261 q 551 -281 706 -281 q 376 -271 458 -281 q 228 -245 294 -261 q 116 -210 163 -229 q 49 -175 69 -192 q 42 -142 42 -168 q 45 -85 42 -115 q 56 -28 49 -54 q 69 3 63 -3 q 123 -17 81 -4 q 227 -44 165 -31 q 365 -67 289 -57 q 522 -78 442 -78 q 673 -76 613 -78 q 770 -69 733 -74 q 823 -58 807 -65 q 839 -37 839 -50 q 831 -19 839 -25 q 795 -10 822 -12 q 716 -8 768 -8 q 576 -8 664 -8 q 376 -3 467 -8 q 219 21 285 3 q 116 72 153 39 q 79 158 79 104 q 113 252 79 217 q 221 311 146 288 q 142 381 172 331 q 111 497 111 432 q 137 607 111 558 q 225 690 163 656 q 391 742 288 724 q 650 761 494 761 q 766 769 703 761 q 893 790 829 776 q 1018 824 957 804 q 1129 869 1079 844 l 1193 738 q 1128 713 1160 724 q 1069 694 1097 703 q 1106 669 1085 686 q 1145 627 1126 651 q 1176 570 1164 603 q 1189 497 1189 538 q 1155 374 1189 424 q 1053 293 1121 324 q 885 249 986 263 q 650 236 783 236 q 547 239 594 236 q 454 247 499 242 q 363 242 388 247 q 338 217 338 238 q 365 193 338 201 q 440 181 392 185 q 558 176 489 176 q 710 175 626 175 m 468 497 q 519 413 468 442 q 650 385 569 385 q 774 413 725 385 q 822 497 822 442 q 777 585 822 554 q 650 617 732 617 q 517 585 565 617 q 468 497 468 554 z "},"h":{"ha":1335,"x_min":111,"x_max":1244,"o":"m 818 761 q 992 736 914 761 q 1127 665 1071 711 q 1214 554 1183 619 q 1244 407 1244 489 l 1244 0 l 861 0 l 861 307 q 848 410 861 368 q 812 479 835 453 q 756 517 789 506 q 685 528 724 528 q 594 508 631 528 q 535 465 557 489 q 505 421 514 442 q 496 397 496 400 l 496 0 l 111 0 l 111 1021 l 496 1021 l 496 681 q 625 739 547 717 q 818 761 703 761 z "},"i":{"ha":607,"x_min":111,"x_max":496,"o":"m 111 1021 l 496 1021 l 496 831 l 111 831 l 111 1021 m 111 742 l 496 742 l 496 0 l 111 0 l 111 742 z "},"j":{"ha":679,"x_min":-111,"x_max":568,"o":"m 568 832 l 185 832 l 185 1036 l 568 1036 l 568 832 m 47 -79 q 129 -63 101 -79 q 169 -15 157 -47 q 183 68 182 18 q 185 185 185 118 l 185 742 l 568 742 l 568 57 q 468 -217 568 -129 q 147 -306 368 -306 q 41 -302 89 -306 q -40 -296 -7 -299 q -111 -285 -81 -290 q -99 -185 -104 -229 q -89 -115 -93 -147 q -83 -76 -85 -82 q -26 -78 -65 -76 q 47 -79 13 -79 z "},"k":{"ha":1207,"x_min":111,"x_max":1186,"o":"m 499 1021 l 499 511 l 776 742 l 1164 742 l 828 451 l 1186 0 l 840 0 l 603 281 l 499 203 l 499 0 l 111 0 l 111 1021 l 499 1021 z "},"l":{"ha":607,"x_min":111,"x_max":496,"o":"m 111 1021 l 496 1021 l 496 0 l 111 0 l 111 1021 z "},"m":{"ha":2040,"x_min":111,"x_max":1950,"o":"m 1544 761 q 1744 731 1665 761 q 1868 652 1822 700 q 1932 547 1914 604 q 1950 433 1950 489 l 1950 0 l 1567 0 l 1567 308 q 1553 411 1567 369 q 1516 478 1539 453 q 1462 515 1493 504 q 1396 526 1431 526 q 1322 511 1354 526 q 1269 475 1290 496 q 1235 433 1247 454 q 1224 400 1224 413 l 1224 0 l 840 0 l 840 308 q 826 411 840 369 q 789 478 813 453 q 735 515 765 504 q 669 526 704 526 q 595 510 628 526 q 541 473 563 494 q 508 430 519 451 q 496 397 496 408 l 496 0 l 111 0 l 111 742 l 440 742 l 471 628 q 520 678 490 654 q 592 720 550 701 q 687 750 633 739 q 806 761 740 761 q 1050 726 954 761 q 1190 625 1146 690 q 1251 676 1217 651 q 1328 720 1285 701 q 1426 750 1372 739 q 1544 761 1479 761 z "},"n":{"ha":1361,"x_min":111,"x_max":1271,"o":"m 497 3 l 111 3 l 111 742 l 440 742 l 471 626 q 610 724 525 688 q 807 761 694 761 q 1005 736 918 761 q 1151 668 1092 711 q 1240 568 1210 625 q 1271 446 1271 511 l 1271 3 l 886 3 l 886 308 q 870 413 886 371 q 827 481 854 456 q 765 517 800 506 q 690 528 729 528 q 604 511 640 528 q 544 473 568 494 q 509 430 521 451 q 497 399 497 408 l 497 3 z "},"o":{"ha":1326,"x_min":76,"x_max":1250,"o":"m 664 761 q 1108 663 967 761 q 1250 371 1250 565 q 1108 78 1250 176 q 664 -21 967 -21 q 217 78 358 -21 q 76 371 76 176 q 217 663 76 565 q 664 761 358 761 m 664 176 q 818 229 771 176 q 865 369 865 282 q 818 510 865 456 q 664 565 771 565 q 510 510 558 565 q 461 369 461 456 q 509 229 461 282 q 664 176 557 176 z "},"p":{"ha":1356,"x_min":111,"x_max":1279,"o":"m 111 742 l 442 742 l 460 631 q 520 682 481 658 q 610 723 560 706 q 715 751 660 740 q 822 761 771 761 q 999 735 917 761 q 1144 660 1082 710 q 1243 535 1207 610 q 1279 364 1279 461 q 1235 181 1279 254 q 1125 63 1192 107 q 980 -1 1058 18 q 833 -21 901 -21 q 655 -3 738 -21 q 497 60 572 15 l 497 -281 l 111 -281 l 111 742 m 685 546 q 610 535 644 546 q 551 508 576 525 q 513 472 526 492 q 497 432 499 451 l 497 342 q 513 297 499 319 q 553 257 528 275 q 613 227 579 239 q 685 215 646 215 q 766 224 728 215 q 833 253 804 233 q 878 303 861 272 q 894 376 894 333 q 876 454 894 422 q 826 507 857 486 q 758 537 796 528 q 685 546 721 546 z "},"q":{"ha":1356,"x_min":76,"x_max":1244,"o":"m 860 60 q 701 -3 785 15 q 524 -21 618 -21 q 427 -12 478 -21 q 326 15 376 -4 q 231 63 276 33 q 151 135 186 93 q 97 235 117 178 q 76 364 76 292 q 113 534 76 460 q 211 659 149 608 q 357 735 274 710 q 533 761 440 761 q 642 751 586 761 q 747 723 697 740 q 837 682 797 706 q 897 631 876 658 l 914 742 l 1244 742 l 1244 -281 l 860 -281 l 860 60 m 463 376 q 479 304 463 335 q 524 253 496 274 q 590 224 551 233 q 671 215 628 215 q 744 226 710 215 q 803 255 778 238 q 843 294 828 272 q 860 338 858 317 l 860 433 q 844 472 858 451 q 804 508 829 492 q 745 535 779 525 q 671 546 711 546 q 597 536 635 546 q 530 506 560 526 q 481 454 500 486 q 463 376 463 422 z "},"r":{"ha":988,"x_min":111,"x_max":946,"o":"m 440 742 l 471 624 q 528 676 497 651 q 601 720 560 701 q 694 749 642 739 q 814 760 746 760 l 946 760 l 915 493 q 897 495 910 493 q 861 499 883 497 q 808 501 839 501 q 733 499 776 501 q 644 478 688 496 q 569 432 601 460 q 516 367 536 404 q 496 290 496 331 l 496 0 l 111 0 l 111 742 l 440 742 z "},"s":{"ha":1069,"x_min":83,"x_max":986,"o":"m 497 -21 q 403 -17 460 -21 q 286 -6 346 -14 q 172 13 226 1 q 83 39 117 24 l 113 228 q 194 206 149 217 q 290 186 239 194 q 394 172 342 178 q 497 167 447 167 q 544 169 521 167 q 585 178 567 172 q 614 191 603 183 q 625 208 625 199 q 589 242 625 228 q 458 278 553 256 l 417 288 q 307 322 363 301 q 206 372 251 342 q 133 442 161 401 q 104 535 104 482 q 213 703 104 646 q 550 761 321 761 q 678 756 613 761 q 803 744 744 751 q 908 728 863 738 q 976 710 954 718 l 950 515 q 876 529 922 521 q 778 544 831 538 q 673 557 726 551 q 576 563 619 563 q 499 554 532 563 q 465 526 465 546 q 481 507 465 515 q 524 492 496 499 q 592 476 553 485 q 676 457 631 468 q 795 419 739 440 q 894 371 851 399 q 961 306 936 343 q 986 222 986 269 q 867 36 986 93 q 497 -21 747 -21 z "},"t":{"ha":910,"x_min":35,"x_max":863,"o":"m 579 -21 q 437 -6 503 -21 q 322 40 371 8 q 245 120 274 71 q 217 240 217 169 l 217 521 l 35 521 l 35 742 l 217 742 l 217 888 l 601 939 l 601 742 l 825 742 l 825 521 l 601 521 l 601 342 q 612 249 601 282 q 640 202 622 217 q 681 185 658 188 q 726 183 703 183 q 761 184 740 183 q 803 185 782 185 q 840 188 824 186 q 858 189 856 189 l 863 1 q 763 -12 840 -4 q 579 -21 686 -21 z "},"u":{"ha":1364,"x_min":104,"x_max":1253,"o":"m 488 739 l 488 435 q 504 330 488 372 q 549 262 521 288 q 613 225 576 236 q 688 214 649 214 q 772 231 738 214 q 826 269 806 247 q 857 313 847 292 q 867 343 867 333 l 867 739 l 1253 739 l 1253 0 l 922 0 l 893 118 q 765 19 843 58 q 571 -21 686 -21 q 373 5 460 -21 q 226 74 286 31 q 135 175 167 117 q 104 297 104 233 l 104 739 l 488 739 z "},"v":{"ha":1097,"x_min":0,"x_max":1097,"o":"m 358 742 l 522 236 l 575 236 l 738 742 l 1097 742 l 797 0 l 300 0 l 0 742 l 358 742 z "},"w":{"ha":1844,"x_min":0,"x_max":1844,"o":"m 1268 260 l 1303 260 l 1517 742 l 1844 742 l 1519 0 l 1096 0 l 943 372 l 908 372 l 742 0 l 307 0 l 0 740 l 358 740 l 539 260 l 575 260 l 775 742 l 1099 740 l 1268 260 z "},"x":{"ha":1064,"x_min":15,"x_max":1043,"o":"m 15 0 l 344 379 l 60 742 l 451 742 l 593 542 l 754 742 l 1035 742 l 751 367 l 1043 0 l 661 0 l 500 185 l 338 0 l 15 0 z "},"y":{"ha":1114,"x_min":0,"x_max":1133,"o":"m 375 742 l 575 261 l 610 261 l 803 742 l 1133 742 l 833 18 q 740 -126 801 -67 q 608 -222 679 -185 q 463 -275 536 -258 q 331 -292 389 -292 q 167 -277 235 -292 q 68 -251 100 -262 l 122 -69 q 141 -74 128 -71 q 172 -82 154 -78 q 209 -89 189 -86 q 247 -92 229 -92 q 415 -52 342 -92 q 526 75 489 -12 l 288 75 l 0 742 l 375 742 z "},"z":{"ha":1046,"x_min":69,"x_max":976,"o":"m 976 0 l 69 0 l 69 149 l 518 521 l 100 521 l 100 742 l 968 742 l 968 592 l 568 221 l 976 221 l 976 0 z "},",":{"ha":385,"x_min":28,"x_max":344,"o":"m 110 128 l 344 128 l 228 -133 l 28 -133 l 110 128 z "},";":{"ha":368,"x_min":28,"x_max":310,"o":"m 97 554 l 310 554 l 310 364 l 97 364 l 97 554 m 97 129 l 310 129 l 203 -83 l 28 -83 l 97 129 z "},"-":{"ha":772,"x_min":81,"x_max":693,"o":"m 81 517 l 693 517 l 693 315 l 81 315 l 81 517 z "},"+":{"ha":647,"x_min":68,"x_max":579,"o":"m 399 607 l 399 468 l 579 468 l 579 318 l 399 318 l 399 179 l 247 179 l 247 318 l 68 318 l 68 468 l 247 468 l 247 607 l 399 607 z "},"*":{"ha":756,"x_min":69,"x_max":686,"o":"m 114 813 l 331 714 l 303 926 l 451 926 l 425 714 l 642 814 l 686 671 l 451 631 l 629 474 l 518 376 l 379 585 l 242 376 l 129 474 l 307 631 l 69 671 l 114 813 z "},"^":{"ha":1289,"x_min":56,"x_max":1233,"o":"m 525 926 l 785 926 l 1233 297 l 921 297 l 653 696 l 372 297 l 56 297 l 525 926 z "},"˜":{"ha":565,"x_min":40,"x_max":525,"o":"m 40 760 q 50 833 40 796 q 79 900 60 869 q 128 950 99 931 q 197 969 157 969 q 276 947 246 969 q 325 904 307 924 q 351 878 342 885 q 374 871 361 871 q 399 883 390 871 q 411 910 407 894 q 415 943 415 926 q 415 971 415 960 l 525 971 q 517 896 525 933 q 492 828 510 858 q 446 780 475 799 q 374 761 417 761 q 329 767 349 761 q 294 783 310 774 q 267 805 279 793 q 246 826 254 817 q 220 851 229 844 q 197 858 211 858 q 172 847 181 858 q 158 820 163 836 q 151 788 153 804 q 150 760 150 771 l 40 760 z "},"/":{"ha":889,"x_min":6,"x_max":899,"o":"m 594 963 l 899 963 l 310 -19 l 6 -19 l 594 963 z "},"<":{"ha":725,"x_min":63,"x_max":668,"o":"m 63 499 l 606 735 l 668 571 l 306 403 l 668 225 l 604 61 l 63 310 l 63 499 z "},"=":{"ha":710,"x_min":56,"x_max":654,"o":"m 56 693 l 654 693 l 654 515 l 56 515 l 56 693 m 56 397 l 654 397 l 654 219 l 56 219 l 56 397 z "},">":{"ha":733,"x_min":60,"x_max":665,"o":"m 60 226 l 435 404 l 60 571 l 122 736 l 665 500 l 665 311 l 124 64 l 60 226 z "},"!":{"ha":404,"x_min":69,"x_max":358,"o":"m 69 989 l 358 989 l 288 256 l 142 256 l 69 989 m 107 146 l 321 146 l 321 -25 l 107 -25 l 107 146 z "},"?":{"ha":1011,"x_min":54,"x_max":960,"o":"m 260 247 q 284 377 260 324 q 350 469 308 431 q 446 535 392 508 q 560 585 500 563 q 615 608 588 596 q 665 634 643 619 q 701 666 688 649 q 715 706 715 683 q 688 755 715 736 q 624 784 661 774 q 549 798 588 794 q 486 801 510 801 q 324 770 399 801 q 188 690 249 739 l 54 808 q 145 889 93 856 q 257 944 197 922 q 380 975 317 965 q 503 985 443 985 q 656 972 576 985 q 804 926 736 958 q 916 838 872 893 q 960 700 960 783 q 941 620 960 654 q 892 559 922 586 q 823 511 863 532 q 742 472 783 490 q 650 428 696 451 q 569 378 604 406 q 511 318 533 350 q 489 247 489 286 l 260 247 m 267 139 l 479 139 l 479 -25 l 267 -25 l 267 139 z "},"'":{"ha":249,"x_min":29,"x_max":219,"o":"m 176 692 l 71 692 l 29 939 l 219 939 l 176 692 z "},"\"":{"ha":500,"x_min":29,"x_max":471,"o":"m 29 939 l 219 939 l 178 692 l 72 692 l 29 939 m 281 939 l 471 939 l 429 692 l 324 692 l 281 939 z "},"’":{"ha":396,"x_min":54,"x_max":343,"o":"m 138 968 l 343 968 l 203 725 l 54 725 l 138 968 z "},"‘":{"ha":400,"x_min":56,"x_max":344,"o":"m 197 968 l 344 968 l 260 725 l 56 725 l 197 968 z "},"]":{"ha":618,"x_min":0,"x_max":486,"o":"m 0 -146 l 235 -146 l 235 879 l 0 879 l 0 1042 l 486 1042 l 486 -308 l 0 -308 l 0 -146 z "},"\\":{"ha":883,"x_min":0,"x_max":883,"o":"m 590 -19 l 0 963 l 292 963 l 883 -19 l 590 -19 z "},"[":{"ha":582,"x_min":89,"x_max":575,"o":"m 89 1042 l 575 1042 l 575 879 l 340 879 l 340 -146 l 575 -146 l 575 -310 l 89 -310 l 89 1042 z "},"}":{"ha":694,"x_min":0,"x_max":639,"o":"m 0 -153 l 74 -153 q 120 -142 97 -153 q 160 -110 143 -132 q 189 -53 178 -87 q 200 31 200 -18 l 200 164 q 225 285 200 233 q 303 369 250 338 q 225 452 250 400 q 200 575 200 504 l 200 704 q 189 788 200 753 q 160 844 178 822 q 120 877 143 867 q 74 888 97 888 l 0 888 l 0 1042 l 139 1042 q 256 1024 203 1042 q 348 969 310 1007 q 408 871 386 931 q 429 726 429 811 l 429 571 q 453 499 429 525 q 509 459 476 472 q 578 442 542 446 q 639 439 614 439 l 639 299 q 578 296 614 299 q 509 281 542 293 q 453 242 476 268 q 429 171 429 217 l 429 8 q 408 -136 429 -76 q 348 -234 386 -196 q 256 -290 310 -272 q 139 -307 203 -307 l 0 -307 l 0 -153 z "},"|":{"ha":503,"x_min":138,"x_max":367,"o":"m 138 1213 l 367 1213 l 367 -431 l 138 -431 l 138 1213 z "},"{":{"ha":694,"x_min":56,"x_max":694,"o":"m 56 439 q 117 442 81 439 q 186 459 153 446 q 243 499 219 472 q 267 571 267 525 l 267 726 q 288 871 267 811 q 348 969 310 931 q 440 1024 386 1007 q 556 1042 493 1042 l 694 1042 l 694 888 l 621 888 q 576 877 599 888 q 535 844 553 867 q 507 788 518 822 q 496 704 496 753 l 496 575 q 470 452 496 504 q 392 369 444 400 q 470 285 444 338 q 496 164 496 233 l 496 31 q 507 -53 496 -18 q 535 -110 518 -87 q 576 -142 553 -132 q 621 -153 599 -153 l 694 -153 l 694 -307 l 556 -307 q 440 -290 493 -307 q 348 -234 386 -272 q 288 -136 310 -196 q 267 8 267 -76 l 267 171 q 243 242 267 217 q 186 281 219 268 q 117 296 153 293 q 56 299 81 299 l 56 439 z "},")":{"ha":561,"x_min":0,"x_max":478,"o":"m 0 -310 q 187 -14 118 -178 q 256 340 256 150 q 190 740 257 564 q 4 1042 122 915 l 188 1042 q 316 894 261 976 q 407 722 371 813 q 460 535 443 631 q 478 344 478 439 q 456 147 478 240 q 397 -30 435 53 q 304 -183 358 -112 q 183 -310 250 -253 l 0 -310 z "},"(":{"ha":560,"x_min":83,"x_max":560,"o":"m 556 1042 q 372 740 440 917 q 304 340 303 563 q 373 -14 304 150 q 560 -310 442 -178 l 378 -310 q 164 -30 244 -196 q 83 344 83 136 q 101 535 83 439 q 154 722 118 631 q 244 894 190 813 q 374 1042 299 976 l 556 1042 z "},"&":{"ha":1228,"x_min":31,"x_max":1188,"o":"m 486 -44 q 332 -28 413 -44 q 185 26 251 -11 q 74 124 118 64 q 31 269 31 183 q 53 371 31 326 q 113 450 76 415 q 197 510 150 485 q 290 551 243 535 q 244 641 260 597 q 228 733 228 685 q 258 847 228 800 q 339 924 289 894 q 452 969 389 954 q 579 983 515 983 q 699 971 638 983 q 810 931 760 958 q 892 858 860 903 q 924 747 924 813 q 869 580 924 657 q 704 463 814 503 q 800 368 753 414 q 886 289 847 322 q 943 347 918 313 q 983 414 968 381 l 1163 343 q 1144 297 1157 322 q 1113 248 1131 272 q 1076 203 1096 224 q 1039 169 1057 182 l 1188 40 l 1053 -86 q 983 -39 1017 -61 q 924 2 954 -19 q 871 39 893 24 q 812 10 850 25 q 722 -17 774 -4 q 611 -37 671 -29 q 486 -44 551 -44 m 565 606 q 610 624 586 613 q 657 653 635 636 q 694 691 679 669 q 708 739 708 713 q 699 775 708 760 q 673 799 689 790 q 638 813 657 808 q 597 818 618 818 q 515 795 544 818 q 485 740 485 772 q 509 672 485 708 q 565 606 533 635 m 535 163 q 602 168 567 163 q 667 183 638 174 q 540 293 603 236 q 417 413 478 350 q 381 399 400 410 q 344 370 361 388 q 317 331 328 353 q 307 286 307 310 q 331 228 307 251 q 389 190 354 204 q 463 169 424 175 q 535 163 503 163 z "},"%":{"ha":1554,"x_min":56,"x_max":1499,"o":"m 1022 957 l 1293 957 l 532 0 l 260 0 l 1022 957 m 333 404 q 224 425 275 404 q 136 482 174 446 q 77 566 99 518 q 56 669 56 614 q 77 774 56 725 q 136 859 99 822 q 224 917 174 896 q 333 938 275 938 q 440 917 390 938 q 528 859 490 896 q 587 774 565 822 q 608 669 608 725 q 587 566 608 614 q 528 482 565 518 q 440 425 490 446 q 333 404 390 404 m 333 569 q 410 596 375 569 q 444 669 444 622 q 410 745 444 718 q 333 772 375 772 q 256 745 290 772 q 221 669 221 718 q 256 596 221 622 q 333 569 290 569 m 1224 -1 q 1115 19 1165 -1 q 1026 76 1064 40 q 967 160 989 113 q 946 264 946 208 q 967 368 946 319 q 1026 453 989 417 q 1115 510 1064 489 q 1224 531 1165 531 q 1331 510 1281 531 q 1418 453 1381 489 q 1477 368 1456 417 q 1499 264 1499 319 q 1477 160 1499 208 q 1418 76 1456 113 q 1331 19 1381 40 q 1224 -1 1281 -1 m 1224 163 q 1300 190 1265 163 q 1335 264 1335 217 q 1300 339 1335 311 q 1224 367 1265 367 q 1146 339 1181 367 q 1111 264 1111 311 q 1146 190 1111 217 q 1224 163 1181 163 z "},"€":{"ha":1610,"x_min":56,"x_max":1554,"o":"m 1025 -50 q 763 -26 879 -50 q 560 42 647 -1 q 413 146 472 85 q 321 279 353 207 l 56 279 l 56 424 l 286 424 q 283 466 283 451 q 286 508 283 481 l 56 508 l 56 653 l 322 653 q 417 787 356 726 q 568 890 479 847 q 774 955 657 932 q 1033 978 890 978 q 1183 969 1107 978 q 1327 947 1258 961 q 1454 914 1396 932 q 1553 876 1513 896 l 1489 669 q 1419 694 1456 682 q 1340 715 1383 706 q 1241 731 1296 725 q 1117 736 1186 736 q 930 719 1018 736 q 786 653 842 703 l 1276 653 l 1276 508 l 707 508 q 702 466 703 481 q 706 424 701 451 l 1276 424 l 1276 279 l 789 279 q 929 210 842 228 q 1117 192 1017 192 q 1217 195 1172 192 q 1306 206 1263 199 q 1393 226 1349 214 q 1492 258 1438 239 l 1554 53 q 1332 -20 1469 10 q 1025 -50 1194 -50 z "},"$":{"ha":1197,"x_min":58,"x_max":1125,"o":"m 128 281 q 201 256 147 272 q 324 222 254 239 q 473 193 394 206 q 622 181 551 181 q 743 190 699 181 q 788 236 788 199 q 759 286 788 265 q 690 322 731 307 q 604 345 650 336 q 525 360 558 354 q 377 393 454 372 q 235 451 300 414 q 128 545 171 488 q 86 689 86 603 q 108 797 86 747 q 176 884 129 846 q 294 949 222 922 q 465 985 365 975 l 465 1181 l 685 1181 l 685 990 q 799 979 746 988 q 901 960 851 971 q 998 933 950 949 q 1097 901 1046 918 l 1031 697 q 798 765 910 747 q 583 782 686 782 q 477 769 517 782 q 438 722 438 756 q 460 682 438 699 q 515 653 482 665 q 584 634 547 642 q 650 622 621 626 q 810 588 726 608 q 963 528 893 567 q 1079 428 1033 490 q 1125 268 1125 367 q 1092 135 1125 189 q 1006 46 1060 81 q 881 -7 951 11 q 735 -31 810 -25 l 735 -203 l 514 -203 l 514 -28 q 382 -12 447 -22 q 258 10 317 -3 q 148 38 199 22 q 58 69 97 53 l 128 281 z "},"@":{"ha":1260,"x_min":83,"x_max":1176,"o":"m 257 432 q 295 294 257 351 q 392 201 333 236 q 522 149 450 165 q 660 132 593 132 q 805 142 733 132 q 938 164 876 151 l 971 19 q 819 -8 900 4 q 656 -19 738 -19 q 441 8 544 -19 q 258 92 338 35 q 131 236 179 149 q 83 443 83 324 q 129 638 83 551 q 250 784 175 724 q 422 876 325 844 q 618 908 518 908 q 821 888 721 908 q 1000 822 921 868 q 1128 697 1079 775 q 1176 504 1176 619 q 1160 390 1176 442 q 1113 301 1144 339 q 1036 243 1082 264 q 932 222 990 222 q 885 227 910 222 q 835 243 860 232 q 786 275 810 254 q 746 326 763 296 q 673 243 718 267 q 588 219 628 219 q 495 235 538 219 q 422 278 453 250 q 372 348 390 307 q 354 442 354 389 q 371 532 354 492 q 417 601 388 572 q 487 647 446 631 q 576 663 528 663 q 646 651 608 663 q 714 608 683 640 l 714 663 l 860 663 l 860 457 q 879 404 860 421 q 933 388 899 388 q 1028 501 1028 388 q 993 622 1028 575 q 901 695 958 668 q 771 733 844 722 q 618 743 697 743 q 485 722 550 743 q 369 661 419 701 q 288 563 318 621 q 257 432 257 506 m 503 439 q 514 408 503 421 q 542 387 525 394 q 577 376 558 379 q 610 372 596 372 q 644 376 626 372 q 677 389 663 381 q 701 411 692 397 q 711 446 711 425 q 701 476 711 464 q 676 497 692 489 q 643 509 661 506 q 610 513 625 513 q 535 494 568 513 q 503 439 503 476 z "},"#":{"ha":1372,"x_min":21,"x_max":1351,"o":"m 714 236 l 453 236 l 346 0 l 114 0 l 219 236 l 21 236 l 94 394 l 289 394 l 363 558 l 144 558 l 219 719 l 435 719 l 539 953 l 771 953 l 667 719 l 929 719 l 1033 953 l 1267 953 l 1163 719 l 1351 719 l 1276 558 l 1090 558 l 1017 394 l 1226 394 l 1153 236 l 947 236 l 842 0 l 608 0 l 714 236 m 783 394 l 857 558 l 596 558 l 522 394 l 783 394 z "},"“":{"ha":674,"x_min":54,"x_max":621,"o":"m 196 968 l 343 968 l 258 725 l 54 725 l 196 968 m 472 968 l 621 968 l 536 725 l 332 725 l 472 968 z "},"”":{"ha":682,"x_min":54,"x_max":628,"o":"m 138 968 l 343 968 l 201 725 l 54 725 l 138 968 m 424 968 l 628 968 l 488 725 l 339 725 l 424 968 z "},"‚":{"ha":372,"x_min":42,"x_max":331,"o":"m 126 156 l 331 156 l 190 -87 l 42 -87 l 126 156 z "},"„":{"ha":671,"x_min":54,"x_max":617,"o":"m 138 157 l 343 157 l 203 -86 l 54 -86 l 138 157 m 413 157 l 617 157 l 476 -86 l 328 -86 l 413 157 z "},"•":{"ha":489,"x_min":83,"x_max":406,"o":"m 244 215 q 182 228 211 215 q 131 262 153 240 q 96 313 108 283 q 83 375 83 342 q 96 438 83 408 q 131 490 108 468 q 182 524 153 511 q 244 538 211 538 q 308 524 278 538 q 359 490 338 511 q 393 438 381 468 q 406 375 406 408 q 393 313 406 342 q 359 262 381 283 q 308 228 338 240 q 244 215 278 215 z "},"_":{"ha":886,"x_min":42,"x_max":844,"o":"m 42 -61 l 844 -61 l 844 -250 l 42 -250 l 42 -61 z "},"–":{"ha":594,"x_min":42,"x_max":553,"o":"m 42 394 l 553 394 l 553 206 l 42 206 l 42 394 z "},"—":{"ha":1104,"x_min":42,"x_max":1061,"o":"m 1061 204 l 42 204 l 42 393 l 1061 393 l 1061 204 z "},"¯":{"ha":583,"x_min":42,"x_max":542,"o":"m 42 1200 l 542 1200 l 542 1046 l 42 1046 l 42 1200 z "},"¬":{"ha":999,"x_min":56,"x_max":944,"o":"m 944 449 l 944 88 l 767 88 l 767 271 l 56 271 l 56 449 l 944 449 z "},"™":{"ha":1114,"x_min":42,"x_max":1036,"o":"m 150 854 l 42 854 l 42 949 l 401 949 l 401 854 l 294 854 l 294 632 l 150 632 l 150 854 m 469 949 l 603 949 l 753 758 l 904 949 l 1036 949 l 1036 632 l 892 632 l 892 775 l 779 632 l 725 632 l 614 772 l 614 632 l 469 632 l 469 949 z "},"®":{"ha":882,"x_min":36,"x_max":849,"o":"m 442 979 q 601 953 526 979 q 730 881 675 926 q 817 776 785 836 q 849 646 849 715 q 817 517 849 578 q 730 410 785 456 q 601 339 675 365 q 442 313 526 313 q 284 339 358 313 q 155 410 210 365 q 68 517 100 456 q 36 646 36 578 q 68 776 36 715 q 155 881 100 836 q 284 953 210 926 q 442 979 358 979 m 442 404 q 565 423 507 404 q 665 475 622 442 q 732 552 707 508 q 757 646 757 596 q 732 740 757 696 q 665 817 707 783 q 565 869 622 850 q 442 888 507 888 q 320 869 378 888 q 219 817 263 850 q 151 740 176 783 q 126 646 126 696 q 151 552 126 596 q 219 475 176 508 q 320 423 263 442 q 442 404 378 404 m 257 801 l 475 801 q 631 682 631 801 q 605 618 631 643 q 549 583 579 593 q 564 569 550 583 q 596 539 578 556 q 642 494 617 519 l 503 494 l 433 569 l 397 569 l 397 494 l 257 494 l 257 801 m 397 644 l 446 644 q 480 656 469 644 q 490 685 490 667 q 480 715 490 703 q 446 728 469 728 l 397 728 l 397 644 z "},"©":{"ha":881,"x_min":35,"x_max":846,"o":"m 442 313 q 283 339 357 313 q 154 410 210 365 q 67 517 99 456 q 35 646 35 578 q 67 776 35 715 q 154 881 99 836 q 283 953 210 926 q 442 979 357 979 q 599 953 525 979 q 727 881 672 926 q 814 776 782 836 q 846 646 846 715 q 814 517 846 578 q 727 410 782 456 q 599 339 672 365 q 442 313 525 313 m 442 888 q 319 868 376 888 q 219 816 261 849 q 151 740 176 783 q 126 646 126 696 q 151 552 126 596 q 219 475 176 508 q 319 423 261 442 q 442 404 376 404 q 564 423 507 404 q 663 475 621 442 q 731 552 706 508 q 756 646 756 596 q 731 740 756 696 q 663 816 706 783 q 564 868 621 849 q 442 888 507 888 m 463 488 q 287 533 344 488 q 229 647 229 578 q 286 762 229 715 q 463 808 343 808 q 555 798 508 808 q 631 772 601 788 l 606 704 q 557 721 583 714 q 488 728 531 728 q 401 712 436 728 q 365 647 365 696 q 401 584 365 601 q 489 567 436 567 q 548 571 524 567 q 606 590 572 575 l 631 522 q 558 497 601 507 q 463 488 515 488 z "},"¤":{"ha":960,"x_min":85,"x_max":878,"o":"m 482 250 q 357 276 414 250 l 226 126 l 85 267 l 226 392 q 206 444 214 417 q 199 503 199 472 q 206 558 199 531 q 224 608 213 585 l 85 731 l 226 872 l 350 728 q 479 756 413 756 q 550 748 517 756 q 611 728 583 740 l 736 872 l 878 731 l 739 608 q 757 558 750 585 q 764 503 764 531 q 757 444 764 471 q 738 390 750 417 l 878 267 l 736 126 l 607 275 q 548 257 579 264 q 482 250 517 250 m 482 390 q 535 397 510 390 q 580 418 560 404 q 612 453 600 432 q 624 503 624 475 q 611 552 624 531 q 578 588 599 574 q 533 608 558 601 q 479 615 507 615 q 429 609 454 615 q 384 589 404 603 q 351 554 364 575 q 339 504 339 533 q 351 454 339 475 q 383 419 364 433 q 429 397 403 404 q 482 390 456 390 z "},"¢":{"ha":1125,"x_min":76,"x_max":1044,"o":"m 76 376 q 114 541 76 472 q 217 656 151 610 q 371 726 282 701 q 561 758 460 750 l 561 908 l 761 908 l 761 758 q 858 747 811 754 q 942 732 904 740 q 1006 715 979 724 q 1044 700 1033 707 l 1008 499 q 978 508 1003 501 q 915 522 953 515 q 828 533 876 528 q 725 538 779 538 q 619 528 667 538 q 536 499 571 519 q 482 449 501 479 q 463 375 463 418 q 483 301 463 333 q 538 248 503 269 q 622 215 574 226 q 725 204 669 204 q 824 208 778 204 q 908 219 871 213 q 972 231 946 225 q 1008 242 999 238 l 1043 40 q 996 22 1026 31 q 928 5 965 13 q 847 -8 890 -3 q 763 -17 804 -14 l 763 -161 l 563 -161 l 563 -17 q 383 17 471 -8 q 228 88 296 42 q 118 206 160 135 q 76 376 76 276 z "},"£":{"ha":963,"x_min":69,"x_max":893,"o":"m 69 0 l 69 188 q 137 190 100 188 q 206 204 174 193 q 259 238 238 215 q 281 300 281 261 l 281 404 l 108 404 l 108 611 l 281 611 l 281 715 q 308 848 281 793 q 386 938 336 903 q 506 989 436 972 q 658 1006 575 1006 l 886 1006 l 886 757 l 758 757 q 687 758 726 757 q 613 751 647 758 q 556 726 579 744 q 533 668 533 707 l 533 611 l 863 611 l 863 404 l 533 404 l 533 308 q 519 233 533 274 l 893 233 l 893 0 l 69 0 z "},"¥":{"ha":1364,"x_min":14,"x_max":1350,"o":"m 478 158 l 131 158 l 131 304 l 475 304 l 415 390 l 168 390 l 168 536 l 310 536 l 14 956 l 419 956 l 683 522 l 946 956 l 1350 956 l 1054 536 l 1197 536 l 1197 390 l 951 390 l 896 304 l 1235 304 l 1235 158 l 896 158 l 896 0 l 478 0 l 478 158 z "},"ƒ":{"ha":878,"x_min":-90,"x_max":914,"o":"m -57 -108 q 9 -125 -31 -118 q 76 -132 49 -132 q 190 -85 160 -132 q 219 54 219 -37 l 219 514 l 44 514 l 44 733 l 219 733 l 219 783 q 251 915 219 865 q 337 990 283 964 q 461 1024 390 1017 q 610 1032 532 1032 q 701 1029 653 1032 q 794 1022 750 1026 q 870 1011 838 1017 q 914 1000 903 1006 l 881 818 q 815 831 858 825 q 728 838 772 838 q 682 833 704 838 q 642 820 660 829 q 615 796 625 811 q 604 756 604 781 l 604 733 l 821 733 l 821 514 l 604 514 l 604 63 q 584 -142 604 -64 q 514 -264 564 -221 q 381 -322 464 -307 q 174 -336 299 -336 q 88 -331 131 -336 q 10 -319 46 -326 q -53 -303 -26 -311 q -90 -290 -79 -296 l -57 -108 z "},"−":{"ha":621,"x_min":57,"x_max":564,"o":"m 57 469 l 564 469 l 564 301 l 57 301 l 57 469 z "},"±":{"ha":638,"x_min":58,"x_max":581,"o":"m 249 224 l 249 329 l 58 329 l 58 469 l 249 469 l 249 607 l 389 607 l 389 469 l 581 469 l 581 329 l 389 329 l 389 224 l 551 224 l 551 79 l 88 79 l 88 224 l 249 224 z "},"×":{"ha":822,"x_min":56,"x_max":767,"o":"m 279 447 l 56 663 l 182 794 l 411 575 l 640 794 l 767 663 l 543 447 l 767 233 l 640 101 l 411 321 l 182 101 l 56 233 l 279 447 z "},"÷":{"ha":925,"x_min":53,"x_max":871,"o":"m 463 639 q 407 650 433 639 q 361 681 381 661 q 331 726 342 700 q 319 782 319 753 q 331 838 319 811 q 361 883 342 864 q 407 913 381 901 q 463 924 433 924 q 563 883 522 924 q 604 782 604 842 q 593 726 604 753 q 563 681 582 700 q 518 650 544 661 q 463 639 492 639 m 53 518 l 871 518 l 871 335 l 53 335 l 53 518 m 463 -28 q 407 -17 433 -28 q 361 14 381 -6 q 331 60 342 33 q 319 115 319 86 q 331 171 319 144 q 361 216 342 197 q 407 246 381 235 q 463 257 433 257 q 563 216 522 257 q 604 115 604 175 q 593 60 604 86 q 563 14 582 33 q 518 -17 544 -6 q 463 -28 492 -28 z "},"¦":{"ha":333,"x_min":83,"x_max":250,"o":"m 83 976 l 250 976 l 250 474 l 83 474 l 83 976 m 83 351 l 250 351 l 250 -150 l 83 -150 l 83 351 z "},"·":{"ha":446,"x_min":63,"x_max":383,"o":"m 224 271 q 160 283 190 271 q 109 317 131 296 q 75 368 88 339 q 63 431 63 397 q 75 494 63 464 q 109 545 88 524 q 160 580 131 567 q 224 593 190 593 q 286 580 257 593 q 337 545 315 567 q 371 494 358 524 q 383 431 383 464 q 371 368 383 397 q 337 317 358 339 q 286 283 315 296 q 224 271 257 271 z "},"°":{"ha":521,"x_min":56,"x_max":465,"o":"m 260 561 q 181 577 218 561 q 115 622 143 593 q 72 688 88 650 q 56 767 56 725 q 72 846 56 808 q 115 911 88 883 q 181 955 143 939 q 260 971 218 971 q 340 955 303 971 q 406 911 378 939 q 449 846 433 883 q 465 767 465 808 q 449 688 465 725 q 406 622 433 650 q 340 577 378 593 q 260 561 303 561 m 260 675 q 326 701 299 675 q 353 767 353 728 q 326 831 353 804 q 260 857 299 857 q 197 831 224 857 q 169 767 169 804 q 197 701 169 728 q 260 675 224 675 z "},"ª":{"ha":646,"x_min":69,"x_max":535,"o":"m 101 922 q 120 933 106 925 q 160 949 135 940 q 219 963 185 957 q 300 969 254 969 q 481 931 428 969 q 535 806 535 892 l 535 635 l 381 635 l 368 664 q 304 634 344 644 q 224 624 264 624 q 115 649 160 624 q 69 728 69 675 q 107 796 69 769 q 232 822 144 822 l 356 822 q 331 876 353 863 q 261 890 310 890 q 190 883 219 890 q 131 867 160 876 l 101 922 m 357 774 l 297 774 q 256 761 271 774 q 242 729 242 749 q 256 699 242 708 q 294 690 271 690 q 338 700 319 690 q 357 717 357 710 l 357 774 z "},"º":{"ha":589,"x_min":83,"x_max":506,"o":"m 292 971 q 375 960 336 971 q 443 929 414 950 q 489 877 472 908 q 506 803 506 846 q 489 728 506 760 q 443 676 472 697 q 375 645 414 656 q 292 635 336 635 q 210 644 249 635 q 144 675 172 654 q 100 728 117 696 q 83 803 83 760 q 100 878 83 846 q 144 931 117 910 q 210 961 172 951 q 292 971 249 971 m 292 888 q 220 865 249 888 q 192 803 192 843 q 220 740 192 763 q 292 718 249 718 q 364 740 335 718 q 393 803 393 763 q 364 865 393 843 q 292 888 335 888 z "},"¹":{"ha":381,"x_min":83,"x_max":249,"o":"m 83 892 l 83 938 q 125 946 107 940 q 156 957 143 951 q 181 971 169 964 l 249 971 l 249 656 l 128 656 l 128 892 l 83 892 z "},"²":{"ha":511,"x_min":69,"x_max":428,"o":"m 69 932 q 150 959 97 947 q 258 971 203 971 q 375 946 335 971 q 415 876 415 921 q 379 795 415 832 q 301 731 343 758 l 428 731 l 428 651 l 76 651 l 76 719 q 129 740 93 726 q 202 772 165 753 q 267 812 239 790 q 294 856 294 833 q 285 876 294 868 q 263 887 276 883 q 234 892 250 890 q 204 893 218 893 q 146 888 172 893 q 88 871 119 883 l 69 932 z "},"³":{"ha":546,"x_min":83,"x_max":456,"o":"m 96 951 q 171 967 132 963 q 244 971 210 971 q 321 966 285 971 q 385 951 357 961 q 429 922 413 940 q 446 879 446 904 q 397 810 446 836 q 440 783 425 799 q 456 740 456 767 q 438 691 456 710 q 392 662 421 672 q 324 648 363 651 q 244 644 286 644 q 163 651 204 644 q 83 671 121 658 l 110 731 q 133 726 118 729 q 167 721 149 724 q 206 717 186 718 q 243 715 225 715 q 308 724 279 715 q 338 749 338 732 q 313 771 338 763 q 229 779 288 779 l 139 779 l 139 838 l 224 838 q 310 846 286 838 q 333 868 333 854 q 304 893 333 885 q 229 901 275 901 q 155 897 186 901 q 115 889 124 892 l 96 951 z "},"⁄":{"ha":881,"x_min":-51,"x_max":921,"o":"m 921 956 l 160 0 l -51 0 l 710 956 l 921 956 z "},"¼":{"ha":1246,"x_min":76,"x_max":1175,"o":"m 146 854 l 79 854 l 79 917 q 182 945 147 928 q 222 968 217 963 l 325 968 l 325 501 l 146 501 l 146 854 m 826 954 l 1060 954 l 310 0 l 76 0 l 826 954 m 996 79 l 647 79 l 647 144 l 843 464 l 1025 464 l 863 183 l 996 183 l 996 269 l 1175 269 l 1175 0 l 996 0 l 996 79 z "},"½":{"ha":1304,"x_min":51,"x_max":1224,"o":"m 147 854 l 81 854 l 81 918 q 183 947 149 929 q 224 968 218 964 l 326 968 l 326 503 l 147 503 l 147 854 m 785 956 l 1018 956 l 279 0 l 51 0 l 785 956 m 706 101 q 742 114 715 104 q 805 139 769 124 q 879 173 840 154 q 951 213 918 192 q 1004 257 983 233 q 1025 303 1025 281 q 1012 332 1025 321 q 978 349 999 343 q 933 358 957 356 q 886 360 908 360 q 801 352 839 360 q 718 325 763 344 l 694 415 q 745 437 715 426 q 810 456 775 447 q 883 469 846 464 q 956 474 921 474 q 1144 435 1083 474 q 1204 335 1204 397 q 1190 272 1204 303 q 1151 214 1175 242 q 1095 161 1126 186 q 1031 115 1064 136 l 1224 115 l 1224 0 l 706 0 l 706 101 z "},"¾":{"ha":1472,"x_min":69,"x_max":1403,"o":"m 108 621 q 144 613 121 617 q 194 605 167 608 q 250 599 221 601 q 304 597 279 597 q 358 601 332 597 q 403 610 383 604 q 435 626 422 617 q 447 647 447 635 q 409 681 447 669 q 286 693 371 693 l 153 693 l 153 779 l 271 779 q 352 782 319 779 q 404 791 385 785 q 432 806 424 797 q 440 824 440 814 q 400 861 440 847 q 286 875 360 875 q 203 871 246 875 q 119 857 160 867 l 89 946 q 157 962 100 949 q 313 975 214 975 q 424 968 371 975 q 517 946 476 961 q 583 905 558 931 q 607 842 607 879 q 588 783 607 808 q 536 739 568 757 q 600 698 578 724 q 622 632 622 672 q 596 562 622 589 q 526 520 569 535 q 426 501 482 506 q 308 496 369 496 q 224 501 264 496 q 152 512 183 506 q 99 524 121 518 q 69 532 78 529 l 108 621 m 1028 956 l 1260 956 l 524 0 l 289 0 l 1028 956 m 1224 79 l 874 79 l 874 144 l 1069 464 l 1251 464 l 1090 183 l 1224 183 l 1224 268 l 1403 268 l 1403 0 l 1224 0 l 1224 79 z "},"‰":{"ha":2061,"x_min":29,"x_max":1990,"o":"m 306 436 q 198 457 249 436 q 110 514 147 478 q 51 599 72 550 q 29 703 29 647 q 51 807 29 758 q 110 892 72 856 q 198 949 147 928 q 306 969 249 969 q 413 949 363 969 q 501 892 464 928 q 560 807 539 856 q 582 703 582 758 q 560 599 582 647 q 501 514 539 550 q 413 457 464 478 q 306 436 363 436 m 965 956 l 1199 956 l 438 0 l 203 0 l 965 956 m 306 589 q 393 622 357 589 q 429 703 429 656 q 393 784 429 751 q 306 817 357 817 q 217 784 253 817 q 181 703 181 751 q 217 622 181 656 q 306 589 253 589 m 1083 -32 q 976 -11 1026 -32 q 888 46 925 10 q 828 131 850 82 q 807 235 807 179 q 828 339 807 290 q 888 424 850 388 q 976 481 925 460 q 1083 501 1026 501 q 1191 481 1140 501 q 1279 424 1242 460 q 1338 339 1317 388 q 1360 235 1360 290 q 1338 131 1360 179 q 1279 46 1317 82 q 1191 -11 1242 10 q 1083 -32 1140 -32 m 1714 -32 q 1606 -11 1657 -32 q 1518 46 1556 10 q 1459 131 1481 82 q 1438 235 1438 179 q 1459 339 1438 290 q 1518 424 1481 388 q 1606 481 1556 460 q 1714 501 1657 501 q 1822 481 1771 501 q 1910 424 1872 460 q 1969 339 1947 388 q 1990 235 1990 290 q 1969 131 1990 179 q 1910 46 1947 82 q 1822 -11 1872 10 q 1714 -32 1771 -32 m 1083 121 q 1171 154 1135 121 q 1207 235 1207 188 q 1171 316 1207 283 q 1083 349 1135 349 q 994 316 1031 349 q 958 235 958 283 q 994 154 958 188 q 1083 121 1031 121 m 1714 121 q 1801 154 1765 121 q 1838 235 1838 188 q 1801 316 1838 283 q 1714 349 1765 349 q 1625 316 1661 349 q 1589 235 1589 283 q 1625 154 1589 188 q 1714 121 1661 121 z "},"μ":{"ha":1364,"x_min":104,"x_max":1253,"o":"m 489 739 l 489 435 q 506 330 489 372 q 550 262 522 288 q 614 225 578 236 q 689 214 650 214 q 773 231 739 214 q 828 269 807 247 q 858 313 849 292 q 868 343 868 333 l 868 739 l 1253 739 l 1253 0 l 924 0 l 893 118 q 765 19 844 58 q 571 -21 686 -21 q 489 -6 526 -21 l 489 -274 l 104 -274 l 104 739 l 489 739 z "},"¶":{"ha":1131,"x_min":76,"x_max":1006,"o":"m 1006 932 l 1006 0 l 785 0 l 785 782 l 650 782 l 650 0 l 429 0 l 429 319 q 294 342 358 319 q 181 406 229 365 q 105 503 133 447 q 76 625 76 558 q 105 747 76 690 q 181 844 133 803 q 294 908 229 885 q 429 932 358 932 l 1006 932 z "},"§":{"ha":1394,"x_min":63,"x_max":1325,"o":"m 107 161 q 269 116 171 133 q 482 99 368 99 q 604 107 564 99 q 644 142 644 115 q 623 172 644 160 q 566 194 601 185 q 484 213 531 204 q 388 231 438 221 q 281 256 333 242 q 188 292 229 271 q 120 344 146 314 q 94 418 94 375 q 120 504 94 468 q 193 564 146 540 q 307 601 240 588 q 456 619 374 615 q 445 647 449 632 q 442 681 442 661 q 550 833 442 782 q 889 885 658 885 q 1001 879 939 885 q 1123 864 1064 874 q 1231 840 1182 854 q 1304 810 1281 826 l 1256 704 q 1078 747 1165 732 q 890 761 990 761 q 775 714 775 761 q 794 685 775 696 q 844 667 813 675 q 917 654 875 660 q 1007 642 960 649 q 1121 621 1064 633 q 1223 586 1178 608 q 1297 529 1268 564 q 1325 442 1325 494 q 1300 359 1325 394 q 1228 299 1275 324 q 1115 260 1181 275 q 967 238 1049 244 q 974 210 972 225 q 976 181 976 196 q 850 22 976 75 q 458 -32 724 -32 q 367 -28 421 -32 q 256 -17 313 -25 q 147 5 199 -8 q 63 39 94 18 l 107 161 m 426 457 q 438 433 426 443 q 477 413 450 422 q 549 396 504 404 q 663 376 594 388 q 771 362 711 369 q 882 354 831 354 q 960 363 929 354 q 992 397 992 372 q 968 434 992 418 q 906 463 944 450 q 820 485 868 476 q 725 500 772 494 q 635 508 678 506 q 565 511 593 511 q 456 494 486 511 q 426 457 426 478 z "},"†":{"ha":833,"x_min":69,"x_max":764,"o":"m 276 554 l 69 554 l 69 754 l 271 754 l 271 974 l 565 974 l 565 754 l 764 754 l 764 554 l 556 554 l 539 0 l 293 0 l 276 554 z "},"‡":{"ha":833,"x_min":69,"x_max":764,"o":"m 292 228 l 69 228 l 69 426 l 281 426 l 276 557 l 69 557 l 69 757 l 271 757 l 271 974 l 567 974 l 567 757 l 764 757 l 764 557 l 556 557 l 551 426 l 764 426 l 764 228 l 542 228 l 518 0 l 315 0 l 292 228 z "},"~":{"ha":1024,"x_min":69,"x_max":954,"o":"m 69 200 q 86 326 69 263 q 138 440 103 389 q 225 524 172 492 q 350 556 278 556 q 424 545 393 556 q 482 518 456 535 q 533 479 508 501 q 583 432 557 457 q 630 390 607 410 q 686 371 653 371 q 740 390 719 371 q 769 439 760 410 q 782 501 779 468 q 785 558 785 533 l 954 558 q 941 432 954 496 q 897 317 928 368 q 813 235 865 267 q 683 203 761 203 q 553 239 611 203 q 451 326 496 275 q 407 367 429 347 q 351 388 385 388 q 298 369 319 388 q 263 322 276 350 q 244 260 250 293 q 239 200 239 228 l 69 200 z "},"‹":{"ha":725,"x_min":63,"x_max":681,"o":"m 606 1 l 63 321 l 63 483 l 607 794 l 679 643 l 256 400 l 681 151 l 606 1 z "},"›":{"ha":726,"x_min":43,"x_max":664,"o":"m 43 153 l 469 401 l 44 643 l 119 796 l 664 485 l 664 321 l 121 1 l 43 153 z "},"«":{"ha":969,"x_min":63,"x_max":926,"o":"m 596 -24 l 63 319 l 63 482 l 594 814 l 683 672 l 258 399 l 683 121 l 596 -24 m 836 119 l 508 325 l 508 463 l 835 675 l 926 551 l 681 396 l 925 244 l 836 119 z "},"»":{"ha":981,"x_min":44,"x_max":907,"o":"m 713 400 l 288 672 l 375 815 l 907 483 l 907 321 l 374 -22 l 288 119 l 713 400 m 289 396 l 44 551 l 135 676 l 461 451 l 461 338 l 135 119 l 46 246 l 289 396 z "},"˘":{"ha":508,"x_min":43,"x_max":474,"o":"m 189 1042 q 203 976 189 1004 q 260 947 217 947 q 294 956 281 947 q 315 977 308 964 q 325 1008 322 990 q 328 1042 328 1025 l 474 1042 q 460 949 474 993 q 419 873 446 906 q 352 821 392 840 q 260 801 313 801 q 166 821 207 801 q 98 873 125 840 q 57 949 71 906 q 43 1042 43 993 l 189 1042 z "},"˙":{"ha":379,"x_min":42,"x_max":338,"o":"m 190 779 q 133 790 160 779 q 85 817 106 800 q 53 858 65 835 q 42 908 42 882 q 53 960 42 936 q 85 1001 65 983 q 133 1028 106 1018 q 190 1039 160 1039 q 247 1028 221 1039 q 294 1001 274 1018 q 326 960 314 983 q 338 908 338 936 q 326 858 338 882 q 294 817 314 835 q 247 790 274 800 q 190 779 221 779 z "},"˚":{"ha":482,"x_min":43,"x_max":440,"o":"m 240 676 q 167 690 203 676 q 103 726 131 703 q 60 783 76 750 q 43 857 43 817 q 60 930 43 897 q 103 986 76 963 q 167 1023 131 1010 q 240 1036 203 1036 q 315 1023 279 1036 q 379 986 351 1010 q 424 930 407 963 q 440 857 440 897 q 424 783 440 817 q 379 726 407 750 q 315 690 351 703 q 240 676 279 676 m 242 933 q 174 911 201 933 q 146 857 146 889 q 174 802 146 825 q 242 779 201 779 q 309 802 281 779 q 338 857 338 825 q 309 911 338 889 q 242 933 281 933 z "},"˝":{"ha":744,"x_min":65,"x_max":688,"o":"m 688 1042 l 476 831 l 326 831 l 485 1042 l 688 1042 m 425 1042 l 214 831 l 65 831 l 222 1042 l 425 1042 z "},"˛":{"ha":490,"x_min":76,"x_max":429,"o":"m 238 56 q 226 7 231 32 q 221 -42 221 -18 q 256 -123 222 -100 q 343 -146 290 -146 q 401 -140 375 -146 l 429 -262 q 369 -274 397 -269 q 313 -278 340 -278 q 141 -215 203 -278 q 76 -39 79 -151 q 78 6 76 -19 q 88 56 81 32 l 238 56 z "},"ˇ":{"ha":583,"x_min":28,"x_max":556,"o":"m 204 1044 l 296 960 l 379 1044 l 556 1044 l 354 840 l 238 840 l 28 1044 l 204 1044 z "},"ı":{"ha":607,"x_min":111,"x_max":496,"o":"m 496 0 l 111 0 l 111 735 l 496 735 l 496 0 z "},"`":{"ha":422,"x_min":28,"x_max":393,"o":"m 393 828 l 244 828 l 28 1040 l 236 1040 l 393 828 z "},"ˆ":{"ha":583,"x_min":28,"x_max":557,"o":"m 231 1040 l 347 1040 l 557 836 l 381 836 l 288 921 l 204 836 l 28 836 l 231 1040 z "},"´":{"ha":413,"x_min":29,"x_max":396,"o":"m 179 831 l 29 831 l 188 1042 l 396 1042 l 179 831 z "},"¸":{"ha":474,"x_min":64,"x_max":424,"o":"m 75 -354 l 114 -254 q 219 -276 178 -276 q 285 -260 256 -276 q 315 -206 315 -243 q 313 -186 315 -197 q 301 -165 310 -175 q 278 -147 293 -154 q 238 -139 263 -139 q 192 -147 213 -139 q 154 -167 172 -154 l 64 -117 l 118 76 l 222 47 l 199 -36 q 216 -32 206 -33 q 240 -31 226 -31 q 311 -43 278 -31 q 369 -79 344 -56 q 409 -135 394 -103 q 424 -207 424 -168 q 407 -282 424 -249 q 363 -338 390 -315 q 297 -373 335 -361 q 219 -385 260 -385 q 154 -378 190 -385 q 75 -354 118 -371 z "},"ﬁ":{"ha":1381,"x_min":24,"x_max":1269,"o":"m 199 742 l 199 786 q 240 914 199 867 q 356 986 282 961 q 534 1018 431 1011 q 761 1025 638 1025 q 854 1022 806 1025 q 945 1013 903 1018 q 1018 1000 988 1007 q 1057 988 1049 993 l 1024 824 q 933 840 992 835 q 818 844 875 844 q 744 841 785 844 q 667 827 703 838 q 608 800 632 817 q 583 756 583 783 l 583 742 l 1269 742 l 1269 0 l 885 0 l 885 522 l 583 522 l 583 0 l 199 0 l 199 522 l 24 522 l 24 742 l 199 742 z "},"ﬂ":{"ha":1389,"x_min":24,"x_max":1272,"o":"m 24 742 l 199 742 l 199 788 q 238 919 199 869 q 341 994 278 968 q 483 1027 404 1019 q 642 1035 563 1035 q 710 1031 671 1035 q 785 1021 749 1026 q 851 1008 822 1015 q 889 997 879 1001 l 1272 997 l 1272 0 l 888 0 l 888 811 q 836 826 872 821 q 764 831 800 831 q 699 827 731 831 q 641 815 667 824 q 599 790 615 806 q 583 753 583 775 l 583 742 l 800 742 l 800 522 l 583 522 l 583 0 l 199 0 l 199 522 l 24 522 l 24 742 z "},"Þ":{"ha":1096,"x_min":132,"x_max":1019,"o":"m 132 954 l 464 954 l 464 806 l 603 806 q 1019 486 1019 806 q 915 248 1019 324 q 604 172 811 172 l 464 172 l 464 0 l 132 0 l 132 954 m 526 368 q 631 403 599 368 q 663 494 663 438 q 628 589 663 554 q 522 624 593 624 l 464 624 l 464 368 l 526 368 z "},"þ":{"ha":1356,"x_min":111,"x_max":1279,"o":"m 497 978 l 497 638 q 655 700 572 682 q 833 718 738 718 q 980 699 901 718 q 1125 635 1058 681 q 1235 517 1192 590 q 1279 333 1279 443 q 1243 162 1279 236 q 1144 38 1207 88 q 999 -38 1082 -12 q 822 -64 917 -64 q 715 -53 771 -64 q 610 -26 660 -43 q 520 16 560 -8 q 460 68 481 40 l 460 -156 l 111 -156 l 111 978 l 497 978 m 685 151 q 758 160 721 151 q 826 190 796 169 q 876 244 857 211 q 894 322 894 276 q 878 395 894 365 q 833 444 861 425 q 766 473 804 464 q 685 482 728 482 q 613 471 646 482 q 553 442 579 460 q 513 403 528 425 q 497 360 499 381 l 497 269 q 513 229 499 250 q 551 191 526 208 q 610 163 576 174 q 685 151 644 151 z "},"ß":{"ha":1369,"x_min":132,"x_max":1258,"o":"m 631 950 q 704 947 663 950 q 790 935 746 944 q 876 908 835 925 q 951 863 918 892 q 1005 794 985 835 q 1025 697 1025 754 q 1004 624 1025 657 q 957 565 983 590 q 906 523 931 540 q 874 499 882 506 q 987 466 921 486 q 1113 413 1053 446 q 1216 333 1174 381 q 1258 218 1258 286 q 1245 134 1258 174 q 1190 65 1232 94 q 1069 17 1147 35 q 863 0 992 0 l 500 0 l 500 161 l 863 161 q 965 175 925 161 q 1006 218 1006 189 q 976 254 1006 240 q 902 280 946 268 q 806 305 858 292 q 710 340 754 318 q 637 397 667 363 q 607 486 607 432 q 622 547 607 522 q 658 590 636 572 q 704 621 679 608 q 751 647 729 633 q 787 674 772 660 q 801 710 801 689 q 768 765 801 742 q 656 789 735 789 q 519 767 572 789 q 437 709 467 746 q 395 622 407 672 q 383 515 383 572 l 383 0 l 132 0 l 132 586 q 153 704 132 640 q 231 822 175 768 q 384 913 288 876 q 631 950 481 950 z "},"ð":{"ha":1189,"x_min":83,"x_max":1106,"o":"m 146 769 q 253 799 186 785 q 418 817 319 813 l 453 938 l 633 904 l 607 813 q 828 759 735 799 q 984 660 922 719 q 1076 528 1046 601 q 1106 371 1106 454 q 1054 183 1106 263 q 920 51 1003 103 q 733 -26 838 -1 q 524 -51 629 -51 q 349 -33 429 -51 q 209 22 268 -14 q 117 107 150 57 q 83 218 83 157 q 117 343 83 290 q 208 430 150 396 q 344 481 265 464 q 513 497 422 497 q 705 472 631 497 q 813 404 779 446 q 745 566 811 504 q 561 649 679 628 l 525 526 l 344 557 l 372 657 q 278 647 325 654 q 185 626 231 639 l 146 769 m 524 135 q 707 171 635 135 q 799 283 779 207 q 694 338 768 315 q 528 360 621 360 q 360 326 414 360 q 306 243 306 293 q 358 165 306 196 q 524 135 411 135 z "},"Æ":{"ha":1931,"x_min":14,"x_max":1807,"o":"m 528 953 l 1788 953 l 1788 740 l 1254 740 l 1254 592 l 1725 592 l 1725 379 l 1254 379 l 1254 214 l 1807 214 l 1807 0 l 836 0 l 836 138 l 496 138 l 433 0 l 14 0 l 528 953 m 836 353 l 836 793 l 588 353 l 836 353 z "},"Ł":{"ha":1297,"x_min":21,"x_max":1214,"o":"m 281 257 l 93 158 l 21 304 l 281 442 l 281 954 l 699 954 l 699 654 l 943 783 l 1022 640 l 699 469 l 699 268 l 1214 268 l 1214 0 l 281 0 l 281 257 z "},"Ø":{"ha":1657,"x_min":83,"x_max":1572,"o":"m 581 -28 q 368 46 461 -4 q 212 164 275 96 q 116 313 149 232 q 83 476 83 393 q 133 681 83 585 q 277 850 182 778 q 513 963 372 922 q 835 1001 653 1004 l 861 1125 l 1089 1125 l 1057 982 q 1281 910 1185 960 q 1442 794 1378 861 q 1540 644 1507 726 q 1572 476 1572 563 q 1523 267 1572 364 q 1377 100 1474 171 q 1137 -10 1281 29 q 803 -49 993 -50 l 778 -151 l 551 -151 l 581 -28 m 500 476 q 537 319 500 381 q 642 226 574 257 l 781 782 q 668 756 719 776 q 579 697 617 735 q 521 603 542 658 q 500 476 500 549 m 1154 485 q 1115 647 1154 579 q 1001 750 1076 715 l 861 192 q 972 212 918 194 q 1065 265 1025 229 q 1130 354 1106 300 q 1154 485 1154 408 z "},"Œ":{"ha":2000,"x_min":83,"x_max":1875,"o":"m 83 483 q 127 678 83 592 q 267 826 171 765 q 516 921 363 888 q 889 954 669 954 l 1857 954 l 1857 740 l 1322 740 l 1322 592 l 1793 592 l 1793 379 l 1322 379 l 1322 214 l 1875 214 l 1875 0 l 890 0 q 533 35 685 0 q 281 135 381 71 q 132 288 181 199 q 83 483 83 376 m 501 483 q 523 353 501 407 q 585 264 544 299 q 685 213 626 229 q 819 197 744 197 q 867 199 846 197 q 904 201 889 200 l 904 789 q 867 792 886 792 q 829 793 849 793 q 587 715 672 793 q 501 483 501 638 z "},"æ":{"ha":2015,"x_min":69,"x_max":1938,"o":"m 389 -21 q 264 -6 322 -21 q 163 38 206 8 q 94 111 119 67 q 69 215 69 156 q 91 296 69 257 q 154 366 113 335 q 258 416 196 397 q 404 435 321 435 l 664 435 q 605 506 664 483 q 447 529 546 529 q 369 524 410 529 q 291 512 328 519 q 224 494 254 504 q 175 475 193 485 l 113 663 q 154 683 122 667 q 238 716 186 699 q 359 747 289 733 q 517 761 429 761 q 824 720 699 761 q 1007 590 950 679 q 1191 717 1078 674 q 1439 761 1304 761 q 1651 734 1558 761 q 1808 660 1744 707 q 1905 548 1872 613 q 1935 408 1938 483 l 1932 338 l 1311 338 q 1337 266 1311 296 q 1404 218 1363 236 q 1499 192 1446 200 q 1606 183 1551 183 q 1788 200 1713 183 q 1886 225 1863 217 l 1915 47 q 1865 29 1903 40 q 1772 7 1828 18 q 1648 -12 1717 -4 q 1504 -21 1579 -21 q 1381 -15 1443 -21 q 1258 6 1318 -8 q 1146 44 1199 21 q 1050 100 1093 67 l 1050 0 l 719 0 l 693 74 q 581 8 656 36 q 389 -21 506 -21 m 1625 451 q 1609 500 1621 476 q 1577 542 1597 524 q 1529 572 1557 561 q 1467 583 1501 583 q 1405 571 1433 583 q 1356 540 1376 558 q 1322 497 1335 521 q 1308 451 1310 474 l 1625 451 m 454 217 q 480 156 454 186 q 561 126 506 126 q 601 132 582 126 q 634 145 619 138 q 657 160 649 153 q 665 174 665 168 l 665 319 l 589 319 q 523 309 549 319 q 482 283 497 299 q 460 249 467 267 q 454 217 454 232 z "},"ł":{"ha":932,"x_min":21,"x_max":911,"o":"m 264 286 l 93 193 l 21 340 l 264 469 l 264 982 l 649 982 l 649 665 l 831 763 l 911 618 l 649 482 l 649 0 l 264 0 l 264 286 z "},"ø":{"ha":1326,"x_min":76,"x_max":1250,"o":"m 76 371 q 217 663 76 565 q 664 761 358 761 q 730 760 699 761 q 792 756 761 758 l 856 863 l 1075 863 l 989 721 q 1187 590 1124 676 q 1250 371 1250 503 q 1108 78 1250 176 q 664 -21 967 -21 q 605 -19 633 -21 q 549 -15 576 -18 l 486 -119 l 267 -119 l 349 19 q 142 149 207 61 q 76 371 76 236 m 461 369 q 493 258 461 303 l 676 564 q 516 515 571 568 q 461 369 461 463 m 865 369 q 836 465 865 428 l 665 178 q 813 228 761 176 q 865 369 865 279 z "},"œ":{"ha":1756,"x_min":76,"x_max":1676,"o":"m 76 308 q 218 552 76 471 q 664 633 360 633 q 830 626 756 633 q 967 606 904 619 q 1190 635 1074 635 q 1372 615 1285 635 q 1528 556 1460 594 q 1636 461 1596 518 q 1676 331 1676 404 l 1676 253 l 1071 253 q 1110 190 1079 214 q 1181 153 1140 167 q 1267 134 1222 139 q 1350 129 1313 129 q 1434 132 1393 129 q 1509 140 1475 135 q 1568 150 1543 144 q 1606 161 1593 156 l 1635 31 q 1598 15 1625 24 q 1531 -1 1571 7 q 1437 -14 1490 -8 q 1321 -19 1383 -19 q 1153 -13 1240 -19 q 982 13 1065 -7 q 840 -12 918 -4 q 668 -19 761 -19 q 219 63 361 -19 q 76 308 76 144 m 1281 493 q 1208 485 1243 493 q 1146 463 1174 478 q 1099 425 1118 447 q 1071 374 1079 403 l 1497 374 q 1425 460 1483 426 q 1281 493 1367 493 m 461 308 q 509 183 461 231 q 665 136 557 136 q 742 144 708 136 q 700 217 715 176 q 685 307 685 257 q 701 399 685 357 q 744 475 717 442 q 708 482 728 479 q 663 485 688 485 q 509 435 557 485 q 461 308 461 386 z "},"À":{"ha":1529,"x_min":26,"x_max":1517,"o":"m 433 0 l 26 0 l 501 953 l 1042 953 l 1517 0 l 1110 0 l 1035 168 l 506 168 l 433 0 m 725 688 l 610 435 l 933 435 l 818 688 l 725 688 m 910 1033 l 761 1033 l 544 1246 l 753 1246 l 910 1033 z "},"Á":{"ha":1529,"x_min":26,"x_max":1517,"o":"m 433 0 l 26 0 l 501 953 l 1042 953 l 1517 0 l 1110 0 l 1035 168 l 506 168 l 433 0 m 725 688 l 610 435 l 933 435 l 818 688 l 725 688 m 710 1033 l 560 1033 l 718 1244 l 926 1244 l 710 1033 z "},"Â":{"ha":1529,"x_min":26,"x_max":1517,"o":"m 433 0 l 26 0 l 501 953 l 1042 953 l 1517 0 l 1110 0 l 1035 168 l 506 168 l 433 0 m 725 688 l 610 435 l 933 435 l 818 688 l 725 688 m 674 1260 l 790 1260 l 1000 1056 l 824 1056 l 731 1140 l 647 1056 l 471 1056 l 674 1260 z "},"Å":{"ha":1529,"x_min":26,"x_max":1517,"o":"m 433 0 l 26 0 l 501 953 l 1042 953 l 1517 0 l 1110 0 l 1035 168 l 506 168 l 433 0 m 725 688 l 610 435 l 933 435 l 818 688 l 725 688 m 761 1039 q 688 1052 724 1039 q 624 1089 651 1065 q 581 1146 597 1113 q 564 1219 564 1179 q 581 1292 564 1260 q 624 1349 597 1325 q 688 1385 651 1372 q 761 1399 724 1399 q 836 1385 800 1399 q 900 1349 872 1372 q 944 1292 928 1325 q 961 1219 961 1260 q 944 1146 961 1179 q 900 1089 928 1113 q 836 1052 872 1065 q 761 1039 800 1039 m 763 1296 q 694 1274 722 1296 q 667 1219 667 1251 q 694 1165 667 1188 q 763 1142 722 1142 q 830 1165 801 1142 q 858 1219 858 1188 q 830 1274 858 1251 q 763 1296 801 1296 z "},"Ç":{"ha":1431,"x_min":108,"x_max":1354,"o":"m 824 -49 q 499 -9 635 -49 q 277 99 364 31 q 149 262 190 168 q 108 464 108 356 q 151 669 108 575 q 283 833 194 764 q 510 940 372 901 q 835 978 647 978 q 983 969 908 978 q 1127 947 1058 961 q 1254 914 1196 932 q 1353 876 1313 896 l 1289 646 q 1113 695 1199 678 q 915 713 1026 713 q 756 702 832 713 q 624 664 681 692 q 535 588 568 636 q 501 464 501 540 q 534 341 501 389 q 623 265 567 293 q 755 226 679 238 q 917 215 831 215 q 1017 219 971 215 q 1106 230 1063 222 q 1193 251 1149 238 q 1292 283 1238 264 l 1354 51 q 1132 -19 1269 10 q 824 -49 994 -49 m 546 -397 l 585 -297 q 690 -319 649 -319 q 756 -303 726 -319 q 786 -249 786 -286 q 783 -229 786 -240 q 772 -208 781 -218 q 749 -190 764 -197 q 708 -182 733 -182 q 663 -190 683 -182 q 625 -210 643 -197 l 535 -160 l 589 33 l 693 4 l 669 -79 q 687 -75 676 -76 q 711 -74 697 -74 q 782 -86 749 -74 q 840 -122 815 -99 q 880 -178 865 -146 q 894 -250 894 -211 q 878 -325 894 -292 q 833 -381 861 -358 q 768 -416 806 -404 q 690 -428 731 -428 q 625 -421 661 -428 q 546 -397 589 -414 z "},"Ð":{"ha":1565,"x_min":51,"x_max":1482,"o":"m 132 0 l 132 954 l 903 954 q 1015 948 953 954 q 1141 923 1076 942 q 1267 871 1206 904 q 1376 784 1328 838 q 1453 654 1424 731 q 1482 474 1482 578 q 1453 294 1482 369 q 1376 165 1424 218 q 1267 80 1328 113 q 1141 30 1206 47 q 1015 6 1076 13 q 903 0 953 0 l 132 0 m 526 267 l 790 267 q 898 275 844 267 q 994 307 951 283 q 1062 372 1036 331 q 1088 479 1088 413 q 1064 582 1088 542 q 1000 646 1040 622 q 906 678 960 669 q 792 688 853 688 l 526 688 l 526 267 m 51 622 l 664 622 l 664 421 l 51 421 l 51 622 z "},"Đ":{"ha":1565,"x_min":51,"x_max":1482,"o":"m 132 0 l 132 954 l 903 954 q 1015 948 953 954 q 1141 923 1076 942 q 1267 871 1206 904 q 1376 784 1328 838 q 1453 654 1424 731 q 1482 474 1482 578 q 1453 294 1482 369 q 1376 165 1424 218 q 1267 80 1328 113 q 1141 30 1206 47 q 1015 6 1076 13 q 903 0 953 0 l 132 0 m 526 267 l 790 267 q 898 275 844 267 q 994 307 951 283 q 1062 372 1036 331 q 1088 479 1088 413 q 1064 582 1088 542 q 1000 646 1040 622 q 906 678 960 669 q 792 688 853 688 l 526 688 l 526 267 m 51 622 l 664 622 l 664 421 l 51 421 l 51 622 z "},"È":{"ha":1406,"x_min":132,"x_max":1281,"o":"m 132 0 l 132 954 l 1263 954 l 1263 717 l 526 717 l 526 579 l 1200 579 l 1200 390 l 526 390 l 526 238 l 1281 238 l 1281 0 l 132 0 m 890 1033 l 742 1033 l 525 1246 l 733 1246 l 890 1033 z "},"É":{"ha":1406,"x_min":132,"x_max":1281,"o":"m 132 0 l 132 954 l 1263 954 l 1263 717 l 526 717 l 526 579 l 1200 579 l 1200 390 l 526 390 l 526 238 l 1281 238 l 1281 0 l 132 0 m 660 1033 l 510 1033 l 668 1244 l 876 1244 l 660 1033 z "},"Ê":{"ha":1406,"x_min":132,"x_max":1281,"o":"m 132 0 l 132 954 l 1263 954 l 1263 717 l 526 717 l 526 579 l 1200 579 l 1200 390 l 526 390 l 526 238 l 1281 238 l 1281 0 l 132 0 m 644 1264 l 761 1264 l 971 1060 l 794 1060 l 701 1144 l 618 1060 l 442 1060 l 644 1264 z "},"Ì":{"ha":682,"x_min":157,"x_max":550,"o":"m 550 0 l 157 0 l 157 954 l 550 954 l 550 0 m 522 1033 l 374 1033 l 157 1246 l 365 1246 l 522 1033 z "},"Í":{"ha":682,"x_min":157,"x_max":550,"o":"m 550 0 l 157 0 l 157 954 l 550 954 l 550 0 m 322 1033 l 172 1033 l 331 1244 l 539 1244 l 322 1033 z "},"Î":{"ha":682,"x_min":81,"x_max":610,"o":"m 550 0 l 157 0 l 157 954 l 550 954 l 550 0 m 283 1268 l 400 1268 l 610 1064 l 433 1064 l 340 1149 l 257 1064 l 81 1064 l 283 1268 z "},"Ò":{"ha":1657,"x_min":83,"x_max":1574,"o":"m 829 -49 q 499 -7 639 -49 q 266 106 358 35 q 128 274 174 178 q 83 476 83 369 q 128 680 83 585 q 265 847 174 775 q 497 961 357 919 q 828 1003 638 1003 q 1158 960 1018 1003 q 1391 847 1299 918 q 1528 679 1483 775 q 1574 475 1574 583 q 1528 273 1574 368 q 1392 106 1483 178 q 1160 -7 1300 35 q 829 -49 1019 -49 m 828 738 q 683 722 747 738 q 572 674 618 706 q 502 592 526 642 q 478 475 478 542 q 503 360 478 408 q 575 279 529 311 q 685 231 621 247 q 829 215 750 215 q 964 231 900 215 q 1076 278 1028 246 q 1152 358 1124 310 q 1181 474 1181 407 q 1088 674 1181 610 q 828 738 996 738 m 1011 1085 l 863 1085 l 646 1297 l 854 1297 l 1011 1085 z "},"Ó":{"ha":1657,"x_min":83,"x_max":1574,"o":"m 829 -49 q 499 -7 639 -49 q 266 106 358 35 q 128 274 174 178 q 83 476 83 369 q 128 680 83 585 q 265 847 174 775 q 497 961 357 919 q 828 1003 638 1003 q 1158 960 1018 1003 q 1391 847 1299 918 q 1528 679 1483 775 q 1574 475 1574 583 q 1528 273 1574 368 q 1392 106 1483 178 q 1160 -7 1300 35 q 829 -49 1019 -49 m 828 738 q 683 722 747 738 q 572 674 618 706 q 502 592 526 642 q 478 475 478 542 q 503 360 478 408 q 575 279 529 311 q 685 231 621 247 q 829 215 750 215 q 964 231 900 215 q 1076 278 1028 246 q 1152 358 1124 310 q 1181 474 1181 407 q 1088 674 1181 610 q 828 738 996 738 m 796 1089 l 646 1089 l 804 1300 l 1013 1300 l 796 1089 z "},"Ô":{"ha":1657,"x_min":83,"x_max":1574,"o":"m 829 -49 q 499 -7 639 -49 q 266 106 358 35 q 128 274 174 178 q 83 476 83 369 q 128 680 83 585 q 265 847 174 775 q 497 961 357 919 q 828 1003 638 1003 q 1158 960 1018 1003 q 1391 847 1299 918 q 1528 679 1483 775 q 1574 475 1574 583 q 1528 273 1574 368 q 1392 106 1483 178 q 1160 -7 1300 35 q 829 -49 1019 -49 m 828 738 q 683 722 747 738 q 572 674 618 706 q 502 592 526 642 q 478 475 478 542 q 503 360 478 408 q 575 279 529 311 q 685 231 621 247 q 829 215 750 215 q 964 231 900 215 q 1076 278 1028 246 q 1152 358 1124 310 q 1181 474 1181 407 q 1088 674 1181 610 q 828 738 996 738 m 768 1299 l 885 1299 l 1094 1094 l 918 1094 l 825 1179 l 742 1094 l 565 1094 l 768 1299 z "},"Š":{"ha":1193,"x_min":88,"x_max":1100,"o":"m 160 317 q 277 273 213 292 q 408 242 342 254 q 539 223 475 229 q 653 217 603 217 q 703 219 679 217 q 747 226 728 221 q 776 240 765 232 q 788 263 788 249 q 726 317 788 294 q 536 363 665 339 q 389 394 464 375 q 253 449 314 414 q 153 542 192 485 q 114 689 114 600 q 141 813 114 757 q 226 909 168 869 q 376 971 285 949 q 599 993 468 993 q 734 986 672 993 q 852 967 796 979 q 962 939 908 956 q 1074 903 1015 922 l 1006 656 q 790 725 892 704 q 583 746 688 746 q 490 736 529 746 q 450 690 450 726 q 472 653 450 668 q 527 628 493 639 q 603 611 561 618 q 688 599 646 604 q 836 571 763 589 q 969 519 910 553 q 1064 429 1028 485 q 1100 288 1100 374 q 1059 136 1100 197 q 951 38 1018 75 q 799 -16 885 0 q 626 -32 714 -32 q 475 -24 551 -32 q 328 -1 399 -15 q 195 32 257 14 q 88 71 133 50 l 160 317 m 510 1250 l 601 1165 l 685 1250 l 861 1250 l 660 1046 l 543 1046 l 333 1250 l 510 1250 z "},"Ù":{"ha":1474,"x_min":132,"x_max":1342,"o":"m 744 -50 q 465 -16 581 -50 q 275 76 349 18 q 167 210 201 133 q 132 375 132 288 l 132 947 l 526 947 l 526 424 q 542 330 526 369 q 587 265 558 290 q 655 228 615 240 q 742 217 694 217 q 892 265 838 217 q 947 424 947 313 l 947 947 l 1342 947 l 1342 375 q 1310 210 1342 288 q 1207 76 1278 133 q 1022 -16 1136 18 q 744 -50 908 -50 m 919 1028 l 771 1028 l 554 1240 l 763 1240 l 919 1028 z "},"Ú":{"ha":1474,"x_min":132,"x_max":1342,"o":"m 744 -50 q 465 -16 581 -50 q 275 76 349 18 q 167 210 201 133 q 132 375 132 288 l 132 947 l 526 947 l 526 424 q 542 330 526 369 q 587 265 558 290 q 655 228 615 240 q 742 217 694 217 q 892 265 838 217 q 947 424 947 313 l 947 947 l 1342 947 l 1342 375 q 1310 210 1342 288 q 1207 76 1278 133 q 1022 -16 1136 18 q 744 -50 908 -50 m 704 1031 l 554 1031 l 713 1242 l 921 1242 l 704 1031 z "},"Û":{"ha":1474,"x_min":132,"x_max":1342,"o":"m 744 -50 q 465 -16 581 -50 q 275 76 349 18 q 167 210 201 133 q 132 375 132 288 l 132 947 l 526 947 l 526 424 q 542 330 526 369 q 587 265 558 290 q 655 228 615 240 q 742 217 694 217 q 892 265 838 217 q 947 424 947 313 l 947 947 l 1342 947 l 1342 375 q 1310 210 1342 288 q 1207 76 1278 133 q 1022 -16 1136 18 q 744 -50 908 -50 m 675 1240 l 792 1240 l 1001 1036 l 825 1036 l 732 1121 l 649 1036 l 472 1036 l 675 1240 z "},"Ý":{"ha":1361,"x_min":14,"x_max":1347,"o":"m 14 954 l 393 954 l 657 549 l 704 549 l 967 954 l 1347 954 l 882 314 l 882 0 l 488 0 l 488 303 l 14 954 m 647 1031 l 497 1031 l 656 1242 l 864 1242 l 647 1031 z "},"Ž":{"ha":1368,"x_min":108,"x_max":1247,"o":"m 1225 733 l 669 267 l 1247 267 l 1247 0 l 108 0 l 108 221 l 688 686 l 147 686 l 147 953 l 1225 953 l 1225 733 m 596 1246 l 688 1161 l 771 1246 l 947 1246 l 746 1042 l 629 1042 l 419 1246 l 596 1246 z "},"à":{"ha":1161,"x_min":69,"x_max":1050,"o":"m 693 74 q 581 8 656 36 q 389 -21 506 -21 q 264 -6 322 -21 q 163 38 206 8 q 94 111 119 67 q 69 215 69 156 q 91 296 69 257 q 154 366 113 335 q 258 416 196 397 q 404 435 321 435 l 664 435 q 605 506 664 483 q 447 529 546 529 q 301 515 371 529 q 175 475 232 501 q 154 529 165 499 q 135 588 143 560 q 120 638 126 617 q 113 663 114 658 q 154 683 122 667 q 238 716 186 699 q 359 747 289 733 q 517 761 429 761 q 738 742 639 761 q 906 684 836 724 q 1013 583 975 644 q 1050 438 1050 522 l 1050 0 l 719 0 l 693 74 m 589 319 q 523 309 549 319 q 482 283 497 299 q 460 249 467 267 q 454 217 454 232 q 480 156 454 186 q 561 126 506 126 q 601 132 582 126 q 634 145 619 138 q 657 160 649 153 q 665 174 665 168 l 665 319 l 589 319 m 763 794 l 614 794 l 397 1007 l 606 1007 l 763 794 z "},"á":{"ha":1161,"x_min":69,"x_max":1050,"o":"m 693 74 q 581 8 656 36 q 389 -21 506 -21 q 264 -6 322 -21 q 163 38 206 8 q 94 111 119 67 q 69 215 69 156 q 91 296 69 257 q 154 366 113 335 q 258 416 196 397 q 404 435 321 435 l 664 435 q 605 506 664 483 q 447 529 546 529 q 301 515 371 529 q 175 475 232 501 q 154 529 165 499 q 135 588 143 560 q 120 638 126 617 q 113 663 114 658 q 154 683 122 667 q 238 716 186 699 q 359 747 289 733 q 517 761 429 761 q 738 742 639 761 q 906 684 836 724 q 1013 583 975 644 q 1050 438 1050 522 l 1050 0 l 719 0 l 693 74 m 589 319 q 523 309 549 319 q 482 283 497 299 q 460 249 467 267 q 454 217 454 232 q 480 156 454 186 q 561 126 506 126 q 601 132 582 126 q 634 145 619 138 q 657 160 649 153 q 665 174 665 168 l 665 319 l 589 319 m 547 792 l 397 792 l 556 1003 l 764 1003 l 547 792 z "},"â":{"ha":1161,"x_min":69,"x_max":1050,"o":"m 693 74 q 581 8 656 36 q 389 -21 506 -21 q 264 -6 322 -21 q 163 38 206 8 q 94 111 119 67 q 69 215 69 156 q 91 296 69 257 q 154 366 113 335 q 258 416 196 397 q 404 435 321 435 l 664 435 q 605 506 664 483 q 447 529 546 529 q 301 515 371 529 q 175 475 232 501 q 154 529 165 499 q 135 588 143 560 q 120 638 126 617 q 113 663 114 658 q 154 683 122 667 q 238 716 186 699 q 359 747 289 733 q 517 761 429 761 q 738 742 639 761 q 906 684 836 724 q 1013 583 975 644 q 1050 438 1050 522 l 1050 0 l 719 0 l 693 74 m 589 319 q 523 309 549 319 q 482 283 497 299 q 460 249 467 267 q 454 217 454 232 q 480 156 454 186 q 561 126 506 126 q 601 132 582 126 q 634 145 619 138 q 657 160 649 153 q 665 174 665 168 l 665 319 l 589 319 m 519 1001 l 636 1001 l 846 797 l 669 797 l 576 882 l 493 797 l 317 797 l 519 1001 z "},"å":{"ha":1161,"x_min":69,"x_max":1050,"o":"m 693 74 q 581 8 656 36 q 389 -21 506 -21 q 264 -6 322 -21 q 163 38 206 8 q 94 111 119 67 q 69 215 69 156 q 91 296 69 257 q 154 366 113 335 q 258 416 196 397 q 404 435 321 435 l 664 435 q 605 506 664 483 q 447 529 546 529 q 301 515 371 529 q 175 475 232 501 q 154 529 165 499 q 135 588 143 560 q 120 638 126 617 q 113 663 114 658 q 154 683 122 667 q 238 716 186 699 q 359 747 289 733 q 517 761 429 761 q 738 742 639 761 q 906 684 836 724 q 1013 583 975 644 q 1050 438 1050 522 l 1050 0 l 719 0 l 693 74 m 589 319 q 523 309 549 319 q 482 283 497 299 q 460 249 467 267 q 454 217 454 232 q 480 156 454 186 q 561 126 506 126 q 601 132 582 126 q 634 145 619 138 q 657 160 649 153 q 665 174 665 168 l 665 319 l 589 319 m 581 797 q 507 810 543 797 q 444 847 471 824 q 400 904 417 871 q 383 978 383 938 q 400 1051 383 1018 q 444 1107 417 1083 q 507 1144 471 1131 q 581 1157 543 1157 q 656 1144 619 1157 q 719 1107 692 1131 q 764 1051 747 1083 q 781 978 781 1018 q 764 904 781 938 q 719 847 747 871 q 656 810 692 824 q 581 797 619 797 m 582 1054 q 514 1032 542 1054 q 486 978 486 1010 q 514 923 486 946 q 582 900 542 900 q 649 923 621 900 q 678 978 678 946 q 649 1032 678 1010 q 582 1054 621 1054 z "},"ç":{"ha":1125,"x_min":76,"x_max":1044,"o":"m 725 538 q 619 528 667 538 q 536 499 571 519 q 482 449 501 479 q 463 375 463 418 q 483 301 463 333 q 538 248 503 269 q 622 215 574 226 q 725 204 669 204 q 824 208 778 204 q 908 219 871 213 q 972 231 946 225 q 1008 242 999 238 l 1043 40 q 978 17 1021 28 q 882 -3 935 6 q 774 -16 829 -11 q 669 -21 718 -21 q 531 -12 601 -21 q 394 14 460 -4 q 270 62 328 32 q 169 136 213 92 q 101 240 126 181 q 76 376 76 300 q 124 558 76 485 q 251 677 171 632 q 439 742 332 722 q 667 761 546 761 q 794 754 732 761 q 907 738 856 747 q 994 719 958 729 q 1044 700 1031 708 l 1008 499 q 978 508 1003 501 q 915 522 953 515 q 828 533 876 528 q 725 538 779 538 m 450 -394 l 489 -294 q 594 -317 553 -317 q 660 -300 631 -317 q 690 -246 690 -283 q 688 -226 690 -237 q 676 -205 685 -215 q 653 -187 668 -194 q 613 -179 638 -179 q 567 -187 588 -179 q 529 -207 547 -194 l 439 -157 l 493 36 l 597 7 l 574 -76 q 591 -72 581 -74 q 615 -71 601 -71 q 686 -83 653 -71 q 744 -119 719 -96 q 784 -176 769 -143 q 799 -247 799 -208 q 782 -322 799 -289 q 738 -378 765 -356 q 672 -413 710 -401 q 594 -425 635 -425 q 529 -418 565 -425 q 450 -394 493 -411 z "},"đ":{"ha":1357,"x_min":108,"x_max":1290,"o":"m 1276 1021 l 1276 0 l 944 0 l 928 111 q 867 60 907 85 q 778 18 828 36 q 673 -10 728 0 q 565 -21 618 -21 q 389 5 472 -21 q 243 81 306 31 q 144 206 181 132 q 108 378 108 281 q 128 508 108 451 q 183 608 149 565 q 263 679 218 650 q 357 726 307 708 q 458 753 407 744 q 554 761 508 761 q 733 744 650 761 q 890 682 815 726 l 890 1021 l 1276 1021 m 703 526 q 621 517 660 526 q 554 489 582 508 q 510 439 526 469 q 493 365 493 408 q 512 287 493 319 q 561 234 531 254 q 628 205 592 214 q 703 196 665 196 q 776 207 743 196 q 835 235 810 218 q 874 272 860 251 q 890 313 889 293 l 890 404 q 874 447 889 425 q 834 487 860 469 q 775 515 808 504 q 703 526 742 526 m 790 933 l 1290 933 l 1290 779 l 790 779 l 790 933 z "},"è":{"ha":1169,"x_min":76,"x_max":1090,"o":"m 1085 338 l 465 338 q 491 266 465 296 q 558 218 517 236 q 651 192 599 200 q 758 183 704 183 q 859 188 813 183 q 942 200 906 193 q 1003 214 978 207 q 1039 225 1028 221 l 1069 47 q 1019 29 1057 40 q 926 7 982 18 q 801 -12 871 -4 q 657 -21 732 -21 q 519 -13 589 -21 q 385 13 450 -6 q 265 60 321 31 q 167 131 208 89 q 101 231 125 174 q 76 363 76 289 q 118 530 76 456 q 231 656 160 604 q 394 734 301 707 q 592 761 488 761 q 805 734 711 761 q 962 660 899 707 q 1058 548 1025 613 q 1088 408 1090 483 l 1085 338 m 778 451 q 762 500 774 476 q 730 542 750 524 q 682 572 710 561 q 619 583 654 583 q 558 571 586 583 q 508 540 529 558 q 475 497 488 521 q 461 451 463 474 l 778 451 m 767 794 l 618 794 l 401 1007 l 610 1007 l 767 794 z "},"é":{"ha":1169,"x_min":76,"x_max":1090,"o":"m 1085 338 l 465 338 q 491 266 465 296 q 558 218 517 236 q 651 192 599 200 q 758 183 704 183 q 859 188 813 183 q 942 200 906 193 q 1003 214 978 207 q 1039 225 1028 221 l 1069 47 q 1019 29 1057 40 q 926 7 982 18 q 801 -12 871 -4 q 657 -21 732 -21 q 519 -13 589 -21 q 385 13 450 -6 q 265 60 321 31 q 167 131 208 89 q 101 231 125 174 q 76 363 76 289 q 118 530 76 456 q 231 656 160 604 q 394 734 301 707 q 592 761 488 761 q 805 734 711 761 q 962 660 899 707 q 1058 548 1025 613 q 1088 408 1090 483 l 1085 338 m 778 451 q 762 500 774 476 q 730 542 750 524 q 682 572 710 561 q 619 583 654 583 q 558 571 586 583 q 508 540 529 558 q 475 497 488 521 q 461 451 463 474 l 778 451 m 551 792 l 401 792 l 560 1003 l 768 1003 l 551 792 z "},"š":{"ha":1069,"x_min":83,"x_max":986,"o":"m 497 -21 q 403 -17 460 -21 q 286 -6 346 -14 q 172 13 226 1 q 83 39 117 24 l 113 228 q 194 206 149 217 q 290 186 239 194 q 394 172 342 178 q 497 167 447 167 q 544 169 521 167 q 585 178 567 172 q 614 191 603 183 q 625 208 625 199 q 589 242 625 228 q 458 278 553 256 l 417 288 q 307 322 363 301 q 206 372 251 342 q 133 442 161 401 q 104 535 104 482 q 213 703 104 646 q 550 761 321 761 q 678 756 613 761 q 803 744 744 751 q 908 728 863 738 q 976 710 954 718 l 950 515 q 876 529 922 521 q 778 544 831 538 q 673 557 726 551 q 576 563 619 563 q 499 554 532 563 q 465 526 465 546 q 481 507 465 515 q 524 492 496 499 q 592 476 553 485 q 676 457 631 468 q 795 419 739 440 q 894 371 851 399 q 961 306 936 343 q 986 222 986 269 q 867 36 986 93 q 497 -21 747 -21 m 447 999 l 539 914 l 622 999 l 799 999 l 597 794 l 481 794 l 271 999 l 447 999 z "},"ô":{"ha":1326,"x_min":76,"x_max":1250,"o":"m 664 761 q 1108 663 967 761 q 1250 371 1250 565 q 1108 78 1250 176 q 664 -21 967 -21 q 217 78 358 -21 q 76 371 76 176 q 217 663 76 565 q 664 761 358 761 m 664 176 q 818 229 771 176 q 865 369 865 282 q 818 510 865 456 q 664 565 771 565 q 510 510 558 565 q 461 369 461 456 q 509 229 461 282 q 664 176 557 176 m 601 1000 l 718 1000 l 928 796 l 751 796 l 658 881 l 575 796 l 399 796 l 601 1000 z "},"ó":{"ha":1326,"x_min":76,"x_max":1250,"o":"m 664 761 q 1108 663 967 761 q 1250 371 1250 565 q 1108 78 1250 176 q 664 -21 967 -21 q 217 78 358 -21 q 76 371 76 176 q 217 663 76 565 q 664 761 358 761 m 664 176 q 818 229 771 176 q 865 369 865 282 q 818 510 865 456 q 664 565 771 565 q 510 510 558 565 q 461 369 461 456 q 509 229 461 282 q 664 176 557 176 m 631 796 l 481 796 l 639 1007 l 847 1007 l 631 796 z "},"ò":{"ha":1326,"x_min":76,"x_max":1250,"o":"m 664 761 q 1108 663 967 761 q 1250 371 1250 565 q 1108 78 1250 176 q 664 -21 967 -21 q 217 78 358 -21 q 76 371 76 176 q 217 663 76 565 q 664 761 358 761 m 664 176 q 818 229 771 176 q 865 369 865 282 q 818 510 865 456 q 664 565 771 565 q 510 510 558 565 q 461 369 461 456 q 509 229 461 282 q 664 176 557 176 m 846 797 l 697 797 l 481 1010 l 689 1010 l 846 797 z "},"î":{"ha":607,"x_min":39,"x_max":568,"o":"m 496 0 l 111 0 l 111 735 l 496 735 l 496 0 m 242 1033 l 358 1033 l 568 829 l 392 829 l 299 914 l 215 829 l 39 829 l 242 1033 z "},"í":{"ha":607,"x_min":111,"x_max":496,"o":"m 496 0 l 111 0 l 111 735 l 496 735 l 496 0 m 279 832 l 129 832 l 288 1043 l 496 1043 l 279 832 z "},"ì":{"ha":607,"x_min":111,"x_max":496,"o":"m 496 0 l 111 0 l 111 735 l 496 735 l 496 0 m 479 833 l 331 833 l 114 1046 l 322 1046 l 479 833 z "},"ê":{"ha":1169,"x_min":76,"x_max":1090,"o":"m 1085 338 l 465 338 q 491 266 465 296 q 558 218 517 236 q 651 192 599 200 q 758 183 704 183 q 859 188 813 183 q 942 200 906 193 q 1003 214 978 207 q 1039 225 1028 221 l 1069 47 q 1019 29 1057 40 q 926 7 982 18 q 801 -12 871 -4 q 657 -21 732 -21 q 519 -13 589 -21 q 385 13 450 -6 q 265 60 321 31 q 167 131 208 89 q 101 231 125 174 q 76 363 76 289 q 118 530 76 456 q 231 656 160 604 q 394 734 301 707 q 592 761 488 761 q 805 734 711 761 q 962 660 899 707 q 1058 548 1025 613 q 1088 408 1090 483 l 1085 338 m 778 451 q 762 500 774 476 q 730 542 750 524 q 682 572 710 561 q 619 583 654 583 q 558 571 586 583 q 508 540 529 558 q 475 497 488 521 q 461 451 463 474 l 778 451 m 524 1025 l 640 1025 l 850 821 l 674 821 l 581 906 l 497 821 l 321 821 l 524 1025 z "},"ù":{"ha":1365,"x_min":126,"x_max":1275,"o":"m 510 739 l 510 435 q 526 330 510 372 q 571 262 543 288 q 635 225 599 236 q 710 214 671 214 q 794 231 760 214 q 849 269 828 247 q 879 313 869 292 q 889 343 889 333 l 889 739 l 1275 739 l 1275 0 l 944 0 l 915 118 q 787 19 865 58 q 593 -21 708 -21 q 395 5 482 -21 q 249 74 308 31 q 158 175 189 117 q 126 297 126 233 l 126 739 l 510 739 m 865 793 l 717 793 l 500 1006 l 708 1006 l 865 793 z "},"ú":{"ha":1365,"x_min":126,"x_max":1275,"o":"m 510 739 l 510 435 q 526 330 510 372 q 571 262 543 288 q 635 225 599 236 q 710 214 671 214 q 794 231 760 214 q 849 269 828 247 q 879 313 869 292 q 889 343 889 333 l 889 739 l 1275 739 l 1275 0 l 944 0 l 915 118 q 787 19 865 58 q 593 -21 708 -21 q 395 5 482 -21 q 249 74 308 31 q 158 175 189 117 q 126 297 126 233 l 126 739 l 510 739 m 650 793 l 500 793 l 658 1004 l 867 1004 l 650 793 z "},"û":{"ha":1365,"x_min":126,"x_max":1275,"o":"m 510 739 l 510 435 q 526 330 510 372 q 571 262 543 288 q 635 225 599 236 q 710 214 671 214 q 794 231 760 214 q 849 269 828 247 q 879 313 869 292 q 889 343 889 333 l 889 739 l 1275 739 l 1275 0 l 944 0 l 915 118 q 787 19 865 58 q 593 -21 708 -21 q 395 5 482 -21 q 249 74 308 31 q 158 175 189 117 q 126 297 126 233 l 126 739 l 510 739 m 625 999 l 742 999 l 951 794 l 775 794 l 682 879 l 599 794 l 422 794 l 625 999 z "},"ý":{"ha":1053,"x_min":-49,"x_max":1085,"o":"m 326 742 l 526 261 l 561 261 l 754 742 l 1085 742 l 785 18 q 692 -126 753 -67 q 559 -222 631 -185 q 414 -275 488 -258 q 282 -292 340 -292 q 119 -277 186 -292 q 19 -251 51 -262 l 74 -69 q 92 -74 79 -71 q 123 -82 106 -78 q 160 -89 140 -86 q 199 -92 181 -92 q 367 -52 293 -92 q 478 75 440 -12 l 239 75 l -49 742 l 326 742 m 533 813 l 383 813 l 542 1024 l 750 1024 l 533 813 z "},"ž":{"ha":1046,"x_min":69,"x_max":976,"o":"m 976 0 l 69 0 l 69 149 l 518 521 l 100 521 l 100 742 l 968 742 l 968 592 l 568 221 l 976 221 l 976 0 m 436 1006 l 528 921 l 611 1006 l 788 1006 l 586 801 l 469 801 l 260 1006 l 436 1006 z "},"Ã":{"ha":1481,"x_min":39,"x_max":1529,"o":"m 446 0 l 39 0 l 514 953 l 1054 953 l 1529 0 l 1122 0 l 1047 168 l 518 168 l 446 0 m 738 688 l 622 435 l 946 435 l 831 688 l 738 688 m 558 1044 q 568 1117 558 1081 q 597 1185 578 1154 q 646 1235 617 1215 q 715 1254 675 1254 q 794 1231 764 1254 q 843 1189 825 1208 q 869 1163 860 1169 q 892 1156 879 1156 q 917 1167 908 1156 q 929 1195 925 1179 q 933 1228 933 1211 q 933 1256 933 1244 l 1043 1256 q 1035 1181 1043 1218 q 1010 1113 1028 1143 q 964 1065 993 1083 q 892 1046 935 1046 q 847 1052 867 1046 q 813 1068 828 1058 q 785 1090 797 1078 q 764 1111 772 1101 q 738 1136 747 1129 q 715 1143 729 1143 q 690 1132 699 1143 q 676 1105 681 1121 q 669 1072 671 1089 q 668 1044 668 1056 l 558 1044 z "},"Ñ":{"ha":1628,"x_min":156,"x_max":1471,"o":"m 1471 0 l 1132 0 l 607 468 l 550 468 l 550 0 l 156 0 l 157 953 l 497 953 l 1021 513 l 1076 513 l 1076 953 l 1471 953 l 1471 0 m 575 1029 q 585 1102 575 1065 q 614 1169 594 1139 q 663 1219 633 1200 q 732 1239 692 1239 q 811 1216 781 1239 q 860 1174 842 1193 q 886 1147 876 1154 q 908 1140 896 1140 q 933 1152 925 1140 q 946 1180 942 1164 q 950 1213 950 1196 q 950 1240 950 1229 l 1060 1240 q 1052 1165 1060 1203 q 1027 1098 1044 1128 q 981 1049 1010 1068 q 908 1031 951 1031 q 864 1037 883 1031 q 829 1053 844 1043 q 801 1074 814 1063 q 781 1096 789 1086 q 755 1121 764 1114 q 732 1128 746 1128 q 706 1117 715 1128 q 692 1090 697 1106 q 686 1057 688 1074 q 685 1029 685 1040 l 575 1029 z "},"Õ":{"ha":1657,"x_min":83,"x_max":1574,"o":"m 829 -49 q 499 -7 639 -49 q 266 106 358 35 q 128 274 174 178 q 83 476 83 369 q 128 680 83 585 q 265 847 174 775 q 497 961 357 919 q 828 1003 638 1003 q 1158 960 1018 1003 q 1391 847 1299 918 q 1528 679 1483 775 q 1574 475 1574 583 q 1528 273 1574 368 q 1392 106 1483 178 q 1160 -7 1300 35 q 829 -49 1019 -49 m 828 738 q 683 722 747 738 q 572 674 618 706 q 502 592 526 642 q 478 475 478 542 q 503 360 478 408 q 575 279 529 311 q 685 231 621 247 q 829 215 750 215 q 964 231 900 215 q 1076 278 1028 246 q 1152 358 1124 310 q 1181 474 1181 407 q 1088 674 1181 610 q 828 738 996 738 m 586 1069 q 596 1142 586 1106 q 625 1210 606 1179 q 674 1260 644 1240 q 743 1279 703 1279 q 822 1256 792 1279 q 871 1214 853 1233 q 897 1188 888 1194 q 919 1181 907 1181 q 944 1192 936 1181 q 957 1220 953 1204 q 961 1253 961 1236 q 961 1281 961 1269 l 1071 1281 q 1063 1206 1071 1243 q 1038 1138 1056 1168 q 992 1090 1021 1108 q 919 1071 963 1071 q 875 1077 894 1071 q 840 1093 856 1083 q 813 1115 825 1103 q 792 1136 800 1126 q 766 1161 775 1154 q 743 1168 757 1168 q 717 1157 726 1168 q 703 1130 708 1146 q 697 1097 699 1114 q 696 1069 696 1081 l 586 1069 z "},"ã":{"ha":1161,"x_min":69,"x_max":1050,"o":"m 693 74 q 581 8 656 36 q 389 -21 506 -21 q 264 -6 322 -21 q 163 38 206 8 q 94 111 119 67 q 69 215 69 156 q 91 296 69 257 q 154 366 113 335 q 258 416 196 397 q 404 435 321 435 l 664 435 q 605 506 664 483 q 447 529 546 529 q 301 515 371 529 q 175 475 232 501 q 154 529 165 499 q 135 588 143 560 q 120 638 126 617 q 113 663 114 658 q 154 683 122 667 q 238 716 186 699 q 359 747 289 733 q 517 761 429 761 q 738 742 639 761 q 906 684 836 724 q 1013 583 975 644 q 1050 438 1050 522 l 1050 0 l 719 0 l 693 74 m 589 319 q 523 309 549 319 q 482 283 497 299 q 460 249 467 267 q 454 217 454 232 q 480 156 454 186 q 561 126 506 126 q 601 132 582 126 q 634 145 619 138 q 657 160 649 153 q 665 174 665 168 l 665 319 l 589 319 m 339 799 q 349 872 339 835 q 378 939 358 908 q 426 989 397 969 q 496 1008 456 1008 q 575 985 544 1008 q 624 943 606 963 q 650 917 640 924 q 672 910 660 910 q 697 922 689 910 q 710 949 706 933 q 714 982 714 965 q 714 1010 714 999 l 824 1010 q 816 935 824 972 q 791 867 808 897 q 744 819 774 838 q 672 800 715 800 q 628 806 647 800 q 593 822 608 813 q 565 844 578 832 q 544 865 553 856 q 519 890 528 883 q 496 897 510 897 q 470 886 479 897 q 456 859 461 875 q 450 826 451 843 q 449 799 449 810 l 339 799 z "},"ñ":{"ha":1378,"x_min":111,"x_max":1271,"o":"m 497 3 l 111 3 l 111 742 l 440 742 l 471 626 q 610 724 525 688 q 807 761 694 761 q 1005 736 918 761 q 1151 668 1092 711 q 1240 568 1210 625 q 1271 446 1271 511 l 1271 3 l 886 3 l 886 308 q 870 413 886 371 q 827 481 854 456 q 765 517 800 506 q 690 528 729 528 q 604 511 640 528 q 544 473 568 494 q 509 430 521 451 q 497 399 497 408 l 497 3 m 483 824 q 493 897 483 860 q 522 964 503 933 q 571 1014 542 994 q 640 1033 600 1033 q 719 1010 689 1033 q 768 968 750 988 q 794 942 785 949 q 817 935 804 935 q 842 947 833 935 q 854 974 850 958 q 858 1007 858 990 q 858 1035 858 1024 l 968 1035 q 960 960 968 997 q 935 892 953 922 q 889 844 918 863 q 817 825 860 825 q 772 831 792 825 q 738 847 753 838 q 710 869 722 857 q 689 890 697 881 q 663 915 672 908 q 640 922 654 922 q 615 911 624 922 q 601 884 606 900 q 594 851 596 868 q 593 824 593 835 l 483 824 z "},"õ":{"ha":1326,"x_min":76,"x_max":1250,"o":"m 664 761 q 1108 663 967 761 q 1250 371 1250 565 q 1108 78 1250 176 q 664 -21 967 -21 q 217 78 358 -21 q 76 371 76 176 q 217 663 76 565 q 664 761 358 761 m 664 176 q 818 229 771 176 q 865 369 865 282 q 818 510 865 456 q 664 565 771 565 q 510 510 558 565 q 461 369 461 456 q 509 229 461 282 q 664 176 557 176 m 421 797 q 431 870 421 833 q 460 938 440 907 q 508 988 479 968 q 578 1007 538 1007 q 657 984 626 1007 q 706 942 688 961 q 732 915 722 922 q 754 908 742 908 q 779 920 771 908 q 792 948 788 932 q 796 981 796 964 q 796 1008 796 997 l 906 1008 q 898 933 906 971 q 873 866 890 896 q 826 817 856 836 q 754 799 797 799 q 710 805 729 799 q 675 821 690 811 q 647 842 660 831 q 626 864 635 854 q 601 889 610 882 q 578 896 592 896 q 552 885 561 896 q 538 858 543 874 q 532 825 533 842 q 531 797 531 808 l 421 797 z "},"ﬃ":{"ha":2136,"x_min":93,"x_max":2025,"o":"m 93 742 l 268 742 l 268 786 q 306 913 268 865 q 406 985 343 960 q 553 1017 469 1010 q 729 1025 638 1025 q 837 1019 779 1025 q 946 1006 894 1014 q 1035 990 997 999 q 1083 976 1072 982 q 1176 1001 1121 992 q 1293 1017 1232 1011 q 1413 1024 1354 1022 q 1517 1025 1472 1025 q 1601 1021 1554 1025 q 1690 1011 1647 1017 q 1766 999 1732 1006 q 1813 988 1800 993 l 1779 824 q 1689 840 1747 835 q 1574 844 1631 844 q 1498 841 1539 844 q 1422 827 1457 838 q 1363 800 1386 817 q 1339 756 1339 783 l 1339 742 l 2025 742 l 2025 0 l 1640 0 l 1640 522 l 1339 522 l 1339 0 l 954 0 l 954 522 l 653 522 l 653 0 l 268 0 l 268 522 l 93 522 l 93 742 m 804 832 q 748 828 775 832 q 699 815 721 825 q 665 791 678 806 q 653 753 653 776 l 653 742 l 954 742 q 954 791 954 779 q 956 811 954 803 q 891 825 931 818 q 804 832 851 832 z "},"…":{"ha":943,"x_min":46,"x_max":913,"o":"m 46 200 l 283 200 l 283 0 l 46 0 l 46 200 m 360 200 l 597 200 l 597 0 l 360 0 l 360 200 m 675 200 l 913 200 l 913 0 l 675 0 l 675 200 z "},"¡":{"ha":407,"x_min":76,"x_max":365,"o":"m 114 928 l 328 928 l 328 757 l 114 757 l 114 928 m 147 636 l 294 636 l 365 -97 l 76 -97 l 147 636 z "},"¿":{"ha":1011,"x_min":54,"x_max":960,"o":"m 267 835 l 479 835 l 479 671 l 267 671 l 267 835 m 260 564 l 489 564 q 511 492 489 525 q 569 433 533 460 q 650 383 604 406 q 742 339 696 360 q 823 299 783 321 q 892 251 863 278 q 941 190 922 224 q 960 110 960 156 q 916 -28 960 26 q 804 -116 872 -83 q 656 -162 736 -149 q 503 -175 576 -175 q 380 -165 443 -175 q 257 -134 317 -156 q 145 -79 197 -112 q 54 1 93 -46 l 188 121 q 324 40 249 71 q 486 8 399 8 q 549 12 510 8 q 624 26 588 15 q 688 56 661 36 q 715 106 715 75 q 701 145 715 128 q 665 176 688 163 q 615 202 643 190 q 560 225 588 214 q 446 274 500 247 q 350 340 392 301 q 284 433 308 379 q 260 564 260 488 z "},"¨":{"ha":621,"x_min":74,"x_max":550,"o":"m 74 926 q 103 988 74 963 q 175 1014 132 1014 q 247 988 217 1014 q 276 926 276 963 q 247 863 276 889 q 175 836 217 836 q 103 863 132 836 q 74 926 74 889 m 349 926 q 378 988 349 963 q 449 1014 407 1014 q 521 988 492 1014 q 550 926 550 963 q 521 863 550 889 q 449 836 492 836 q 378 863 407 836 q 349 926 349 889 z "},"Ä":{"ha":1518,"x_min":14,"x_max":1504,"o":"m 421 0 l 14 0 l 489 953 l 1029 953 l 1504 0 l 1097 0 l 1022 168 l 493 168 l 421 0 m 713 688 l 597 435 l 921 435 l 806 688 l 713 688 m 519 1147 q 549 1209 519 1183 q 621 1235 578 1235 q 692 1209 663 1235 q 722 1147 722 1183 q 692 1083 722 1110 q 621 1057 663 1057 q 549 1083 578 1057 q 519 1147 519 1110 m 794 1147 q 824 1209 794 1183 q 894 1235 853 1235 q 967 1209 938 1235 q 996 1147 996 1183 q 967 1083 996 1110 q 894 1057 938 1057 q 824 1083 853 1057 q 794 1147 794 1110 z "},"Ë":{"ha":1406,"x_min":132,"x_max":1281,"o":"m 132 0 l 132 954 l 1263 954 l 1263 717 l 526 717 l 526 579 l 1200 579 l 1200 390 l 526 390 l 526 238 l 1281 238 l 1281 0 l 132 0 m 464 1147 q 493 1209 464 1183 q 565 1235 522 1235 q 637 1209 607 1235 q 667 1147 667 1183 q 637 1083 667 1110 q 565 1057 607 1057 q 493 1083 522 1057 q 464 1147 464 1110 m 739 1147 q 768 1209 739 1183 q 839 1235 797 1235 q 911 1209 882 1235 q 940 1147 940 1183 q 911 1083 940 1110 q 839 1057 882 1057 q 768 1083 797 1057 q 739 1147 739 1110 z "},"Ï":{"ha":658,"x_min":90,"x_max":567,"o":"m 525 0 l 132 0 l 132 954 l 525 954 l 525 0 m 90 1147 q 119 1209 90 1183 q 192 1235 149 1235 q 263 1209 233 1235 q 293 1147 293 1183 q 263 1083 293 1110 q 192 1057 233 1057 q 119 1083 149 1057 q 90 1147 90 1110 m 365 1147 q 394 1209 365 1183 q 465 1235 424 1235 q 538 1209 508 1235 q 567 1147 567 1183 q 538 1083 567 1110 q 465 1057 508 1057 q 394 1083 424 1057 q 365 1147 365 1110 z "},"Ö":{"ha":1657,"x_min":83,"x_max":1574,"o":"m 829 -49 q 499 -7 639 -49 q 266 106 358 35 q 128 274 174 178 q 83 476 83 369 q 128 680 83 585 q 265 847 174 775 q 497 961 357 919 q 828 1003 638 1003 q 1158 960 1018 1003 q 1391 847 1299 918 q 1528 679 1483 775 q 1574 475 1574 583 q 1528 273 1574 368 q 1392 106 1483 178 q 1160 -7 1300 35 q 829 -49 1019 -49 m 828 738 q 683 722 747 738 q 572 674 618 706 q 502 592 526 642 q 478 475 478 542 q 503 360 478 408 q 575 279 529 311 q 685 231 621 247 q 829 215 750 215 q 964 231 900 215 q 1076 278 1028 246 q 1152 358 1124 310 q 1181 474 1181 407 q 1088 674 1181 610 q 828 738 996 738 m 590 1151 q 619 1213 590 1188 q 692 1239 649 1239 q 763 1213 733 1239 q 793 1151 793 1188 q 763 1088 793 1114 q 692 1061 733 1061 q 619 1088 649 1061 q 590 1151 590 1114 m 865 1151 q 894 1213 865 1188 q 965 1239 924 1239 q 1038 1213 1008 1239 q 1067 1151 1067 1188 q 1038 1088 1067 1114 q 965 1061 1008 1061 q 894 1088 924 1061 q 865 1151 865 1114 z "},"Ü":{"ha":1474,"x_min":132,"x_max":1342,"o":"m 744 -50 q 465 -16 581 -50 q 275 76 349 18 q 167 210 201 133 q 132 375 132 288 l 132 947 l 526 947 l 526 424 q 542 330 526 369 q 587 265 558 290 q 655 228 615 240 q 742 217 694 217 q 892 265 838 217 q 947 424 947 313 l 947 947 l 1342 947 l 1342 375 q 1310 210 1342 288 q 1207 76 1278 133 q 1022 -16 1136 18 q 744 -50 908 -50 m 497 1147 q 526 1209 497 1183 q 599 1235 556 1235 q 670 1209 640 1235 q 700 1147 700 1183 q 670 1083 700 1110 q 599 1057 640 1057 q 526 1083 556 1057 q 497 1147 497 1110 m 772 1147 q 801 1209 772 1183 q 872 1235 831 1235 q 944 1209 915 1235 q 974 1147 974 1183 q 944 1083 974 1110 q 872 1057 915 1057 q 801 1083 831 1057 q 772 1147 772 1110 z "},"Ÿ":{"ha":1361,"x_min":14,"x_max":1347,"o":"m 14 954 l 393 954 l 657 549 l 704 549 l 967 954 l 1347 954 l 882 314 l 882 0 l 488 0 l 488 303 l 14 954 m 442 1147 q 471 1209 442 1183 q 543 1235 500 1235 q 615 1209 585 1235 q 644 1147 644 1183 q 615 1083 644 1110 q 543 1057 585 1057 q 471 1083 500 1057 q 442 1147 442 1110 m 717 1147 q 746 1209 717 1183 q 817 1235 775 1235 q 889 1209 860 1235 q 918 1147 918 1183 q 889 1083 918 1110 q 817 1057 860 1057 q 746 1083 775 1057 q 717 1147 717 1110 z "},"ä":{"ha":1161,"x_min":69,"x_max":1050,"o":"m 693 74 q 581 8 656 36 q 389 -21 506 -21 q 264 -6 322 -21 q 163 38 206 8 q 94 111 119 67 q 69 215 69 156 q 91 296 69 257 q 154 366 113 335 q 258 416 196 397 q 404 435 321 435 l 664 435 q 605 506 664 483 q 447 529 546 529 q 301 515 371 529 q 175 475 232 501 q 154 529 165 499 q 135 588 143 560 q 120 638 126 617 q 113 663 114 658 q 154 683 122 667 q 238 716 186 699 q 359 747 289 733 q 517 761 429 761 q 738 742 639 761 q 906 684 836 724 q 1013 583 975 644 q 1050 438 1050 522 l 1050 0 l 719 0 l 693 74 m 589 319 q 523 309 549 319 q 482 283 497 299 q 460 249 467 267 q 454 217 454 232 q 480 156 454 186 q 561 126 506 126 q 601 132 582 126 q 634 145 619 138 q 657 160 649 153 q 665 174 665 168 l 665 319 l 589 319 m 342 901 q 371 963 342 938 q 443 989 400 989 q 515 963 485 989 q 544 901 544 938 q 515 838 544 864 q 443 811 485 811 q 371 838 400 811 q 342 901 342 864 m 617 901 q 646 963 617 938 q 717 989 675 989 q 789 963 760 989 q 818 901 818 938 q 789 838 818 864 q 717 811 760 811 q 646 838 675 811 q 617 901 617 864 z "},"ï":{"ha":607,"x_min":64,"x_max":540,"o":"m 496 0 l 111 0 l 111 735 l 496 735 l 496 0 m 64 896 q 93 958 64 932 q 165 983 122 983 q 237 958 207 983 q 267 896 267 932 q 237 832 267 858 q 165 806 207 806 q 93 832 122 806 q 64 896 64 858 m 339 896 q 368 958 339 932 q 439 983 397 983 q 511 958 482 983 q 540 896 540 932 q 511 832 540 858 q 439 806 482 806 q 368 832 397 806 q 339 896 339 858 z "},"ö":{"ha":1326,"x_min":76,"x_max":1250,"o":"m 664 761 q 1108 663 967 761 q 1250 371 1250 565 q 1108 78 1250 176 q 664 -21 967 -21 q 217 78 358 -21 q 76 371 76 176 q 217 663 76 565 q 664 761 358 761 m 664 176 q 818 229 771 176 q 865 369 865 282 q 818 510 865 456 q 664 565 771 565 q 510 510 558 565 q 461 369 461 456 q 509 229 461 282 q 664 176 557 176 m 424 901 q 453 963 424 938 q 525 989 482 989 q 597 963 567 989 q 626 901 626 938 q 597 838 626 864 q 525 811 567 811 q 453 838 482 811 q 424 901 424 864 m 699 901 q 728 963 699 938 q 799 989 757 989 q 871 963 842 989 q 900 901 900 938 q 871 838 900 864 q 799 811 842 811 q 728 838 757 811 q 699 901 699 864 z "},"ü":{"ha":1364,"x_min":104,"x_max":1253,"o":"m 488 739 l 488 435 q 504 330 488 372 q 549 262 521 288 q 613 225 576 236 q 688 214 649 214 q 772 231 738 214 q 826 269 806 247 q 857 313 847 292 q 867 343 867 333 l 867 739 l 1253 739 l 1253 0 l 922 0 l 893 118 q 765 19 843 58 q 571 -21 686 -21 q 373 5 460 -21 q 226 74 286 31 q 135 175 167 117 q 104 297 104 233 l 104 739 l 488 739 m 443 900 q 472 962 443 936 q 544 988 501 988 q 616 962 586 988 q 646 900 646 936 q 616 836 646 863 q 544 810 586 810 q 472 836 501 810 q 443 900 443 863 m 718 900 q 747 962 718 936 q 818 988 776 988 q 890 962 861 988 q 919 900 919 936 q 890 836 919 863 q 818 810 861 810 q 747 836 776 810 q 718 900 718 863 z "},"ÿ":{"ha":1114,"x_min":0,"x_max":1133,"o":"m 375 742 l 575 261 l 610 261 l 803 742 l 1133 742 l 833 18 q 740 -126 801 -67 q 608 -222 679 -185 q 463 -275 536 -258 q 331 -292 389 -292 q 167 -277 235 -292 q 68 -251 100 -262 l 122 -69 q 141 -74 128 -71 q 172 -82 154 -78 q 209 -89 189 -86 q 247 -92 229 -92 q 415 -52 342 -92 q 526 75 489 -12 l 288 75 l 0 742 l 375 742 m 318 899 q 347 960 318 935 q 419 986 376 986 q 491 960 461 986 q 521 899 521 935 q 491 835 521 861 q 419 808 461 808 q 347 835 376 808 q 318 899 318 861 m 593 899 q 622 960 593 935 q 693 986 651 986 q 765 960 736 986 q 794 899 794 935 q 765 835 794 861 q 693 808 736 808 q 622 835 651 808 q 593 899 593 861 z "},"ë":{"ha":1169,"x_min":76,"x_max":1090,"o":"m 1085 338 l 465 338 q 491 266 465 296 q 558 218 517 236 q 651 192 599 200 q 758 183 704 183 q 859 188 813 183 q 942 200 906 193 q 1003 214 978 207 q 1039 225 1028 221 l 1069 47 q 1019 29 1057 40 q 926 7 982 18 q 801 -12 871 -4 q 657 -21 732 -21 q 519 -13 589 -21 q 385 13 450 -6 q 265 60 321 31 q 167 131 208 89 q 101 231 125 174 q 76 363 76 289 q 118 530 76 456 q 231 656 160 604 q 394 734 301 707 q 592 761 488 761 q 805 734 711 761 q 962 660 899 707 q 1058 548 1025 613 q 1088 408 1090 483 l 1085 338 m 778 451 q 762 500 774 476 q 730 542 750 524 q 682 572 710 561 q 619 583 654 583 q 558 571 586 583 q 508 540 529 558 q 475 497 488 521 q 461 451 463 474 l 778 451 m 346 901 q 375 963 346 938 q 447 989 404 989 q 519 963 489 989 q 549 901 549 938 q 519 838 549 864 q 447 811 489 811 q 375 838 404 811 q 346 901 346 864 m 621 901 q 650 963 621 938 q 721 989 679 989 q 793 963 764 989 q 822 901 822 938 q 793 838 822 864 q 721 811 764 811 q 650 838 679 811 q 621 901 621 864 z "},":":{"ha":331,"x_min":56,"x_max":268,"o":"m 56 599 l 268 599 l 268 419 l 56 419 l 56 599 m 56 179 l 268 179 l 268 0 l 56 0 l 56 179 z "}}}
